<?xml version="1.0" encoding="UTF-8"?>
<svg width="600" height="200" version="1.1" xmlns="http://www.w3.org/2000/svg">
 <path d="m274.73 93.34s-1.2604 9.0974-3.758 11.601c0 0-5.4328 4.7559-5.1177-7.4051v-31.5h-72.488l-0.23342 15.312h56.691v17.71s-1.5347 25.711 18.44 25.711c0 0 17.343 1.278 19.473-23.458zm-77.267-35.643 6.9967-11-0.27444 12.377h67.236v-13.095h-66.436l3.863-6.0747h66.419v-15.347h-56.691l4.9018-7.7261-13.988-7.4927-25.419 40.27zm-40.962 60.358 17.174 6.0747 17.29-36.6-16.899-6.7807zm32.195-57.866-19.315-15.645-10.556 11.402 19.56 15.271zm1.7104-32.863-18.195-15.861-10.428 11.484 18.306 15.557zm314.21 45.695c2.6201 7.0959 8.2571 18.743 18.586 29.714 7.0784-8.7123 15.441-23.009 15.732-42.785h17.185s0.26843 2.7718 0 7.411c1.3538 5.1177 8.5372 27.502 33.297 44.18l-11.963 12.832s-17.839-11.823-27.286-29.883c-4.0965 10.352-11.128 21.223-22.892 29.51l-1.7973 1.7273s-17.856-12.173-27.852-29.696c-4.785 10.515-12.61 21.13-25.273 28.664l-13.742-11.729s29.154-18.58 29.731-52.904c-5.4328 2.2525-11.648 4.4057-18.784 6.4131l-9.1383-14.285s43.993-7.4402 53.067-39.185l0.40265-1.7156h17.314s2.7018 28.465 55.314 40.9l-8.6014 14.413s-40.486-9.3483-55.221-31.57c0 0-8.2221 13.935-34.242 24.917h17.261s0.13422 5.3044-1.0971 13.071m-143.3-61.321h20.342v26.662h48.831v15.779h-48.142c2.1941 14.624 10.229 23.33 10.229 23.33 11.84 16.555 42.511 30.321 42.511 30.321l-10.41 16.578c-37.061-16.147-53.178-42.47-53.178-42.47-11.076 24.719-50.185 41.636-50.185 41.636l-9.7043-15.744c26.656-12.534 39.465-29.27 39.465-29.27 5.7537-5.602 8.4614-16.969 9.4359-24.38h-44.378v-15.779h45.184zm-283.09 33.227h43.976v18.632h-43.976v35.783h54.952v18.072h-123.09v-18.072h46.38v-87.975h21.754zm474.91 144.9v-46.473h9.1324l19.018 31.039v-31.039h8.7123v46.473h-9.4126l-18.737-30.303v30.303zm-39.506 0v-46.473h34.464v7.8603h-25.081v10.3h23.33v7.8311h-23.33v12.657h25.968v7.8253zm-24.988-17.088v-7.8253h20.231v18.51c-1.9665 1.9024-4.8142 3.5771-8.5489 5.0185-3.723 1.453-7.5044 2.1824-11.327 2.1824-4.8609 0-9.1032-1.0212-12.721-3.0694-3.618-2.0307-6.3256-4.9484-8.1404-8.7415-1.8206-3.7989-2.731-7.9187-2.731-12.377 0-4.8434 1.0154-9.1499 3.0461-12.908 2.0307-3.758 4.9951-6.6465 8.9048-8.6539 2.9819-1.5464 6.6932-2.3108 11.134-2.3108 5.7654 0 10.27 1.2021 13.515 3.6296 3.2445 2.4159 5.3336 5.7596 6.2672 10.031l-9.325 1.739c-0.6594-2.2816-1.8848-4.079-3.6938-5.4036-1.8031-1.3188-4.0614-1.9782-6.7632-1.9782-4.1023 0-7.3643 1.2955-9.7802 3.8981-2.4275 2.5968-3.6355 6.4598-3.6355 11.577 0 5.5145 1.2313 9.6518 3.6763 12.4 2.4509 2.766 5.6662 4.1432 9.6401 4.1432 1.9665 0 3.9331-0.38514 5.9113-1.1554 1.9782-0.77027 3.6763-1.7098 5.0943-2.8068v-5.8996zm-22.703 17.091h-10.206l-4.0614-10.562h-18.574l-3.8339 10.562h-9.9494l18.096-46.473h9.926zm-17.273-18.387-6.4073-17.25-6.2789 17.25zm-71.84 18.384-11.099-46.473h9.6109l7.0025 31.926 8.4964-31.926h11.157l8.152 32.462 7.1309-32.462h9.4475l-11.286 46.473h-9.9552l-9.255-34.738-9.2316 34.738zm-48.382-15.121 9.1324-0.88698c0.54853 3.0636 1.6631 5.3102 3.3437 6.7516 1.6806 1.4355 3.9506 2.1533 6.8041 2.1533 3.0227 0 5.2986-0.63606 6.8274-1.914 1.5347-1.278 2.2992-2.7777 2.2992-4.4933 0-1.0971-0.32095-2.0249-0.96868-2.801-0.64189-0.76444-1.7681-1.4472-3.3787-2.0074-1.0971-0.38513-3.6005-1.0562-7.5102-2.0307-5.0243-1.2488-8.5547-2.7776-10.585-4.5983-2.8594-2.5559-4.2832-5.6779-4.2832-9.3542 0-2.3692 0.67107-4.5808 2.0132-6.6407 1.3422-2.0599 3.2795-3.6296 5.8062-4.7092 2.5209-1.0737 5.5728-1.6106 9.1441-1.6106 5.8296 0 10.224 1.2721 13.171 3.828 2.941 2.5618 4.4933 5.9696 4.645 10.241l-9.3892 0.41431c-0.40264-2.3867-1.2604-4.1081-2.5792-5.1468-1.3246-1.0504-3.3028-1.5756-5.9463-1.5756-2.7251 0-4.8609 0.5602-6.4014 1.6748-0.99786 0.72359-1.488 1.6864-1.488 2.8944 0 1.0971 0.461 2.0366 1.3947 2.8185 1.1788 0.99202 4.0556 2.0249 8.6248 3.1044 4.5575 1.0796 7.9362 2.1883 10.124 3.3495 2.1883 1.1496 3.9039 2.7251 5.1352 4.715 1.2313 2.0074 1.8557 4.4699 1.8557 7.411 0 2.661-0.7411 5.1585-2.2233 7.481-1.4822 2.3283-3.5713 4.0556-6.2731 5.176-2.7076 1.1379-6.0805 1.7039-10.113 1.7039-5.8763 0-10.387-1.3655-13.532-4.0731-3.157-2.7251-5.036-6.6757-5.6487-11.875m-40.487 15.121v-46.473h9.3834v20.634l18.953-20.634h12.622l-17.5 18.101 18.452 28.372h-12.138l-12.78-21.813-7.6094 7.7728v14.04zm-35.635 0v-46.094h9.3834v38.269h23.33v7.8253zm-48.761-22.951c0-4.7325 0.70609-8.7064 2.1241-11.922 1.0562-2.3692 2.4976-4.4874 4.324-6.3723 1.8323-1.879 3.8339-3.2737 6.0105-4.184 2.8944-1.2254 6.2381-1.8382 10.019-1.8382 6.8449 0 12.324 2.1241 16.438 6.3723 4.1023 4.2482 6.1622 10.159 6.1622 17.722 0 7.5044-2.0424 13.375-6.1214 17.611-4.0731 4.2307-9.5292 6.3548-16.357 6.3548-6.9091 0-12.406-2.1066-16.485-6.3256-4.079-4.2132-6.1155-10.019-6.1155-17.419m9.6693-0.31512c0 5.2636 1.2079 9.2491 3.6413 11.968 2.4275 2.7135 5.5145 4.0731 9.2608 4.0731 3.7347 0 6.8099-1.3538 9.2083-4.044 2.3984-2.696 3.6005-6.7341 3.6005-12.126 0-5.3277-1.1729-9.3016-3.5071-11.922-2.34-2.6201-5.4386-3.9331-9.3017-3.9331-3.8689 0-6.985 1.3305-9.3542 3.9798-2.3692 2.6551-3.5479 6.6524-3.5479 12.003m-35.321 23.266-16.619-46.473h10.189l11.758 34.4 11.373-34.4h9.9611l-16.643 46.473zm-39.255-17.088 9.0974 2.8827c-1.3947 5.0768-3.7113 8.8406-6.9558 11.303-3.2445 2.4684-7.3585 3.6997-12.348 3.6997-6.1739 0-11.251-2.1124-15.213-6.3314-3.9739-4.2132-5.9638-9.9844-5.9638-17.29 0-7.7319 1.9957-13.742 5.9871-18.02 3.9973-4.289 9.2491-6.419 15.761-6.419 5.6837 0 10.3 1.6748 13.847 5.036 2.1124 1.9899 3.6997 4.8376 4.7559 8.5606l-9.2842 2.2233c-0.55437-2.4159-1.6981-4.3182-3.4371-5.707-1.7506-1.4005-3.863-2.0949-6.3606-2.0949-3.4429 0-6.2381 1.2313-8.3855 3.7055-2.1416 2.4742-3.2153 6.4832-3.2153 12.021 0 5.8763 1.0562 10.054 3.1686 12.546 2.1124 2.4976 4.8609 3.7463 8.2454 3.7463 2.4917 0 4.6392-0.79362 6.4306-2.3808 1.7973-1.5814 3.0869-4.0731 3.8689-7.481m-44.165-29.383h9.3834v46.473h-9.3834zm-0.79762 46.474h-10.206l-4.0556-10.562h-18.574l-3.8455 10.562h-9.9436l18.096-46.473h9.926zm-17.273-18.387-6.4073-17.25-6.2789 17.25zm-66.421 3.2637 9.1324-0.88698c0.54853 3.0636 1.6631 5.3102 3.3437 6.7516 1.6748 1.4355 3.9506 2.1533 6.7983 2.1533 3.0286 0 5.2986-0.63606 6.8333-1.914 1.5347-1.278 2.2933-2.7777 2.2933-4.4933 0-1.0971-0.31511-2.0249-0.96284-2.801-0.6419-0.76444-1.7681-1.4472-3.3787-2.0074-1.0971-0.38513-3.6004-1.0562-7.5102-2.0307-5.0301-1.2488-8.5606-2.7776-10.585-4.5983-2.8594-2.5559-4.289-5.6779-4.289-9.3542 0-2.3692 0.67691-4.5808 2.0191-6.6407 1.3421-2.0599 3.2737-3.6296 5.8062-4.7092 2.5209-1.0737 5.5728-1.6106 9.1441-1.6106 5.8296 0 10.224 1.2721 13.171 3.828 2.9527 2.5618 4.4933 5.9696 4.6392 10.241l-9.3834 0.41431c-0.40265-2.3867-1.2604-4.1081-2.5793-5.1468-1.3246-1.0504-3.3087-1.5756-5.9463-1.5756-2.7251 0-4.8609 0.5602-6.4014 1.6748-0.99786 0.72359-1.488 1.6864-1.488 2.8944 0 1.0971 0.461 2.0366 1.3947 2.8185 1.1788 0.99202 4.0556 2.0249 8.6248 3.1044 4.5575 1.0796 7.9362 2.1883 10.124 3.3495 2.1883 1.1496 3.8981 2.7251 5.1352 4.715 1.2313 2.0074 1.8498 4.4699 1.8498 7.411 0 2.661-0.7411 5.1585-2.2175 7.481-1.4822 2.3283-3.5713 4.0556-6.2731 5.176-2.7076 1.1379-6.0805 1.7039-10.113 1.7039-5.8763 0-10.387-1.3655-13.538-4.0731-3.1511-2.7251-5.0301-6.6757-5.6428-11.875" fill="#7b7979"/>
</svg>
