<svg id="Layer_1" x="0" y="0" viewBox="0 0 64 64" xmlns="http://www.w3.org/2000/svg"><style type="text/css" id="style2"> .st0{fill:#3CB987;} .st1{fill:#0C2E21;} </style><g id="g8"><circle class="st0" cx="32" cy="32" r="32" id="circle4" /><path class="st1" d="M 15.7,41.9 C 15.2,41.4 14.8,41 14.1,40.5 13.9,40.3 13.5,40 13.5,39.9 c 0,-0.2 0.3,-0.5 0.5,-0.8 4.3,-6 8.7,-12.1 13,-18.1 0.6,-0.9 1.4,-1.7 2.2,-2.2 1.6,-0.9 3.1,-0.9 4.5,0.3 0.6,0.6 1.2,1.4 1.9,2 4.8,5.9 9.6,11.8 14.6,17.7 0.2,0.2 0.2,0.2 0.3,0.3 -0.8,0.6 -1.6,1.4 -2.3,2 -0.6,-0.5 -1.1,-0.9 -1.7,-1.4 -3.4,-2.6 -6.7,-5.3 -10.1,-7.9 -1.4,-1.1 -2.8,-2 -4.3,-2.8 -0.5,-0.3 -1.1,-0.3 -1.6,0 -1.4,0.8 -2.8,1.9 -4,3 -3.6,3 -7.1,6.2 -10.6,9.3 -0.1,0.5 -0.1,0.5 -0.2,0.6 z" id="path6" /></g></svg>