<svg width="99" height="28" viewBox="0 0 99 28" fill="none" xmlns="http://www.w3.org/2000/svg">
<path d="M23.0293 15.0002C23.0293 13.1467 22.9548 11.2126 22.8691 10.695L22.8689 10.6947C22.5849 8.96138 21.4013 7.66285 19.4971 7.06187C18.8845 6.868 17.7614 6.74188 16.6024 6.7102C15.4439 6.67854 14.3449 6.84016 13.7128 7C11.4844 7.56448 10.2295 8.44455 9.86655 9.66667L9.85018 9.72498C9.63206 10.5339 9.87623 11.1501 10.3195 11.4875C10.7697 11.83 11.699 11.8372 12.1879 11.6417C12.5422 11.5 13.616 10.5178 13.8801 9.33333C14.2182 7.817 16.0541 7.66667 16.723 7.83333C17.3919 8 18.228 8.33333 18.3953 9.33333C18.6182 10.6667 18.1355 11.8641 17.7109 12.2973C17.4086 12.6058 16.988 12.8336 16.4396 13.0415C15.8901 13.2498 15.1826 13.4485 14.2851 13.6828L14.2847 13.683C13.1861 13.9687 11.9181 14.3769 11.4696 14.5825H11.4692C9.55992 15.4548 8.69315 17.248 9.2183 19.1447L9.24422 19.2352C9.36582 19.6423 9.67883 20.1065 10.0982 20.5121C10.5162 20.9164 11.0102 21.2335 11.4615 21.372C11.9519 21.5222 12.6603 21.6046 13.3856 21.6085C14.111 21.6124 14.8183 21.5375 15.3066 21.3929C15.733 21.2665 16.4046 20.9255 16.7738 20.6473C17.3091 20.2435 17.6487 19.9861 17.8639 19.8386C17.9689 19.7667 18.0633 19.7074 18.1459 19.6718C18.2135 19.6427 18.3764 19.5837 18.5368 19.6824C18.5376 19.6829 18.5385 19.6834 18.5393 19.6839C18.5404 19.6846 18.5416 19.6851 18.5427 19.6858C18.6377 19.7462 18.6794 19.8339 18.6954 19.8703C18.7125 19.9094 18.7277 19.9582 18.7337 19.9761C18.7973 20.1666 19.0226 20.4601 19.3571 20.7524C19.6834 21.0374 20.0614 21.2756 20.3716 21.3816C21.3076 21.6997 22.3147 21.6896 23.178 21.4183C24.0431 21.1463 24.7397 20.6207 25.0925 19.9313C25.2888 19.5463 25.3577 19.3416 25.3639 19.2168C25.3664 19.1664 25.3578 19.1373 25.3456 19.1137C25.3311 19.0858 25.3015 19.0468 25.2361 18.9922L25.198 18.9634C25.1636 18.941 25.1382 18.9365 25.0976 18.9371C25.0103 18.9384 24.8681 18.9692 24.5879 19.0613C24.4495 19.1069 24.3146 19.1488 24.1899 19.1751C24.0666 19.201 23.9313 19.2169 23.7971 19.1947C23.6531 19.1709 23.5219 19.1051 23.4157 18.9897C23.3159 18.8813 23.2519 18.7441 23.2069 18.597C23.1187 18.3087 23.0777 17.891 23.0556 17.3248C23.0332 16.7504 23.0297 15.9903 23.0293 15.0002ZM18.2814 15.8895C18.2814 16.9319 18.2736 17.5454 18.2226 17.948C18.1964 18.1545 18.1573 18.3203 18.0953 18.4685C18.0326 18.6184 17.9527 18.7354 17.8642 18.8479L17.8641 18.8482C17.1049 19.8114 15.8184 20.1876 14.818 19.6326C14.0045 19.1825 13.7274 18.2188 13.8233 17.2884C13.9203 16.3474 14.4007 15.3422 15.2334 14.6876C15.5303 14.4543 16.1063 14.103 16.6244 13.8152C16.8861 13.6699 17.1405 13.5366 17.3463 13.4387C17.4487 13.39 17.5432 13.348 17.6227 13.3176C17.6623 13.3025 17.7022 13.2887 17.7399 13.2782C17.7722 13.2692 17.8248 13.2564 17.882 13.2564L17.9094 13.2575C18.0423 13.2686 18.1157 13.3578 18.1355 13.3842C18.1627 13.4207 18.1763 13.4554 18.1819 13.4704C18.1944 13.504 18.2013 13.537 18.2051 13.5575C18.2136 13.6032 18.2201 13.6607 18.2256 13.7222C18.237 13.8481 18.2468 14.0249 18.255 14.2371C18.2713 14.6631 18.2814 15.2479 18.2814 15.8895Z" fill="#F786F4"/>
<path d="M6.22839 6.74498C6.18056 6.7413 6.09196 6.74932 5.90066 6.81841C5.51087 6.95919 4.84407 7.29439 3.51259 7.97475C2.76038 8.35965 2.06415 8.72909 1.54854 9.0141C1.29037 9.1568 1.07977 9.2771 0.930867 9.36703C0.85598 9.41226 0.800023 9.44792 0.762591 9.47358C0.755712 9.47829 0.750095 9.48256 0.745314 9.48599C0.691581 9.57655 0.677805 9.67292 0.730736 9.82741C0.797698 10.0228 0.96582 10.288 1.28577 10.6666L2.0305 11.549L2.03032 11.6626L2.02709 18.0146C2.02541 20.7582 2.02593 22.4599 1.95186 23.5769C1.87784 24.6931 1.72718 25.2867 1.37882 25.7737C1.17597 26.0594 0.91087 26.2964 0.610694 26.5715L0.610154 26.5719C0.27085 26.8815 0.0879186 27.1682 0.0254194 27.3967C-0.0288937 27.5953 0.00518428 27.7485 0.114686 27.8742L0.137723 27.899L0.137903 27.8994C0.137903 27.8994 0.157428 27.9173 0.221771 27.9386C0.283518 27.9591 0.368719 27.9766 0.477873 27.9876C0.696161 28.0095 0.978596 28.0025 1.29351 27.9656C1.92563 27.8916 2.63758 27.7039 3.15066 27.4441L3.1512 27.4437C3.75105 27.1417 4.37566 26.6455 4.91026 26.0678C5.44545 25.4894 5.87385 24.8472 6.09755 24.2652C6.70926 22.67 6.79032 21.5546 6.74149 13.994L6.69938 7.31172C6.69808 7.10686 6.58732 6.91835 6.40908 6.81751L6.34375 6.78277C6.28844 6.75523 6.25938 6.74737 6.22839 6.74498Z" fill="#F786F4"/>
<path d="M90.9912 8.24131C90.9912 7.69183 90.9759 7.33034 90.9124 7.10153C90.8823 6.99309 90.8487 6.94388 90.8255 6.92119C90.808 6.90406 90.7795 6.88483 90.711 6.87836C90.5425 6.86248 90.2408 6.93087 89.7053 7.1521C89.1856 7.36684 88.4999 7.70074 87.5885 8.15546C86.8101 8.54444 86.2347 8.8352 85.8213 9.07459C85.3965 9.3206 85.1921 9.48617 85.1063 9.6102C85.0702 9.66239 85.0632 9.69643 85.0626 9.7216C85.0619 9.75098 85.0695 9.79887 85.1083 9.87728C85.1927 10.048 85.3707 10.2645 85.662 10.6001L86.4093 11.4614V19.1392L85.8176 19.9367C85.4293 20.5121 85.427 20.5672 85.3745 20.8228C85.2947 21.2121 85.4632 21.443 85.5133 21.466H85.7835C86.3284 21.4673 87.259 21.4673 88.801 21.4623H92.4631C92.5517 21.3544 92.4509 20.8815 92.3745 20.7342C92.238 20.471 92.1087 20.2911 91.577 19.6709L91.159 19.1392V15.4207C91.159 13.8459 91.1655 12.9644 91.2159 12.3931C91.2684 11.7974 91.3711 11.5162 91.5558 11.1457L91.556 11.1454C92.0586 10.1407 92.6503 9.55573 93.4799 9.51553L93.5744 9.51229C93.7938 9.50821 94.0056 9.53421 94.2067 9.68183C94.4057 9.82796 94.5638 10.0752 94.7523 10.3942L94.7898 10.4561C95.5835 11.739 96.8957 12.1015 97.9406 11.4571C98.3933 11.1777 98.7416 10.6419 98.9033 10.0178C99.0646 9.39491 99.027 8.73307 98.7686 8.22673C98.3809 7.46902 97.7489 6.98622 96.9853 6.79719C96.2169 6.607 95.2952 6.71015 94.3391 7.16812C92.908 7.85362 92.1004 9.22468 91.9026 9.55098C91.8779 9.5918 91.8524 9.63221 91.8262 9.66671C91.8005 9.70044 91.7599 9.74799 91.6993 9.78495C91.6304 9.82692 91.564 9.83844 91.5162 9.84146C91.4958 9.84276 91.4772 9.8425 91.4671 9.84236C91.4538 9.84218 91.449 9.842 91.4403 9.842C91.27 9.84197 91.1771 9.72414 91.1464 9.67697C91.1109 9.62253 91.0911 9.56402 91.0791 9.52183C91.0537 9.43287 91.0374 9.3204 91.0256 9.20147C91.0016 8.95839 90.9912 8.62375 90.9912 8.24131Z" fill="#F786F4"/>
<path d="M63.0871 8.88811C62.7217 8.90018 63.0172 8.90197 62.4091 8.90197H60.7282V17.6771C60.7282 18.0904 60.7204 18.5903 60.9133 18.7848C61.1062 18.9792 61.445 19.1392 61.8565 19.1355C62.294 19.1316 62.3913 19.0869 62.9017 18.9411C63.1973 18.8566 63.3635 18.7952 63.558 18.7466C63.6634 18.7203 63.8983 18.7223 63.9712 18.9897C64.0038 19.1093 63.8839 19.4937 63.6795 19.7918C63.0962 20.6425 62.6181 20.8713 62.2424 21.0886C61.7994 21.3448 61.0301 21.5931 60.3253 21.6148C58.9235 21.6579 58.1742 21.4971 57.6618 21.2502C57.2139 21.0344 56.6602 20.5569 56.3563 20.0106L56.2724 19.8639C55.9703 19.3187 55.8808 18.5793 55.8737 17.956L55.8316 14.1274V14.1259L55.7501 9.02435H54.5223C54.1227 9.03426 53.8927 8.97325 53.7808 8.90107C53.7362 8.86079 53.6957 8.83586 53.6957 8.66207C53.7261 8.49476 53.7011 8.27222 54.5223 7.53167C56.8682 5.41622 57.8206 4.66986 59.7287 3.23002C59.897 3.10299 60.0878 2.96417 60.2931 3.0127C60.3252 3.02029 60.3514 3.02512 60.3879 3.05323C60.447 3.09873 60.4834 3.16706 60.5027 3.23907C60.526 3.32577 60.5489 3.44601 60.5697 3.60028C60.6111 3.90802 60.6404 4.32624 60.6528 4.83076C60.6703 5.60737 60.6932 6.34661 60.7061 6.60532L60.711 6.68558C60.7221 6.81388 60.7942 6.90383 60.8623 6.95717C60.9251 7.00633 60.9964 7.035 61.0552 7.05363C61.1745 7.09134 61.3334 7.11467 61.5232 7.13138C61.9093 7.16539 62.6105 7.17836 62.6105 7.17836H63.4932C63.591 7.17836 63.6704 7.2577 63.6704 7.35557V8.6935C63.6704 8.78117 63.6062 8.85569 63.5189 8.86368C63.4079 8.87386 63.2655 8.88222 63.0871 8.88811Z" fill="#F786F4"/>
<path d="M53.1417 21.4453H45.9304C45.7333 21.1558 45.7631 20.693 46.0173 20.3C46.0639 20.2279 46.1122 20.1554 46.1616 20.0847L46.8459 19.1093L46.951 11.5761L46.2788 10.6019C46.0383 10.2536 45.8943 10.032 45.8326 9.8582C45.8046 9.77902 45.8005 9.72708 45.8049 9.6901C45.809 9.65538 45.8229 9.61246 45.8661 9.55422C45.964 9.42236 46.1771 9.2553 46.5983 9.01339C47.0101 8.77685 47.5793 8.49088 48.3483 8.10866C49.6206 7.47558 50.4585 7.106 51.0074 6.94584C51.0563 6.93158 51.1136 6.92187 51.1749 6.91555C51.5465 6.87715 51.8288 7.21131 51.8288 7.58494V11.7708L51.8486 12.9849L51.9155 19.1093L52.6274 20.0088L52.688 20.0883C52.9824 20.4824 53.1464 20.8263 53.1961 21.0816C53.2222 21.2158 53.213 21.3071 53.193 21.3643C53.182 21.3959 53.1661 21.4225 53.1417 21.4453Z" fill="#F786F4"/>
<path d="M37.9575 10.1906C37.4734 9.35691 36.6785 8.92951 35.8316 8.9356C34.9645 8.94186 34.0791 9.40071 33.4338 10.2622L33.4333 10.2629C33.3414 10.3863 33.2599 10.5149 33.1975 10.6997C33.1378 10.8767 33.0999 11.0923 33.0725 11.3865C33.0179 11.9711 32.9992 12.9423 32.9758 14.6977C32.9615 15.7429 32.9589 16.7347 32.9663 17.4912C32.97 17.8693 32.9761 18.1902 32.9846 18.4302C32.9889 18.5499 32.9938 18.6516 32.9994 18.7313C33.0043 18.801 33.0113 18.8798 33.0253 18.9357C33.0641 19.0905 33.1795 19.299 33.3018 19.4913C33.432 19.6961 33.5973 19.9239 33.7681 20.1279C34.0716 20.4905 34.2208 20.8281 34.2524 21.0772C34.2773 21.274 34.2305 21.384 34.1602 21.446C34.1105 21.4465 34.0414 21.4473 33.9547 21.448C33.7636 21.4496 33.4875 21.4517 33.1473 21.4537C32.467 21.4579 31.5307 21.462 30.5069 21.462C29.0558 21.462 28.0923 21.4579 27.4918 21.4537C27.1916 21.4517 26.9821 21.4495 26.8479 21.448C26.8331 21.4478 26.8193 21.4474 26.8063 21.4473C26.7645 21.3615 26.751 21.2441 26.7842 21.0859C26.831 20.8625 26.9656 20.5995 27.1722 20.3519L27.1724 20.3516C27.3605 20.1255 27.5232 19.9243 27.6484 19.6918C27.777 19.453 27.86 19.1943 27.9144 18.8519C28.0198 18.1892 28.0247 17.1565 28.0247 15.2412C28.0247 13.3167 28.0183 12.2675 27.9106 11.6025C27.8551 11.2592 27.7704 11.0004 27.6378 10.7676C27.5406 10.5969 27.4221 10.4488 27.2887 10.2996L27.1504 10.1492C26.9512 9.93551 26.8677 9.81037 26.8436 9.72587C26.8346 9.69452 26.8358 9.67405 26.8416 9.6537C26.8486 9.62918 26.8683 9.58671 26.9238 9.5234C27.0411 9.38984 27.2677 9.21906 27.6652 8.98312C28.0562 8.751 28.5849 8.47127 29.2824 8.11366C30.1173 7.6856 30.7721 7.3691 31.2855 7.15943C31.8073 6.94635 32.1486 6.85883 32.3689 6.85743C32.473 6.85678 32.5325 6.87568 32.5676 6.89523C32.6 6.91328 32.6321 6.94306 32.6628 7.00285C32.734 7.14135 32.7742 7.3909 32.7742 7.81238C32.7742 8.06552 32.791 8.3097 32.8189 8.50186C32.8327 8.59687 32.8504 8.68755 32.8732 8.76319C32.8845 8.80055 32.8996 8.84285 32.9204 8.88323C32.9367 8.91503 32.9767 8.98693 33.0561 9.03801L33.0629 9.04233C33.1785 9.11253 33.2945 9.0913 33.3358 9.08192C33.3896 9.06968 33.4382 9.04811 33.4756 9.02919C33.5525 8.99026 33.6373 8.93343 33.7216 8.87009C33.8932 8.74121 34.1013 8.55627 34.308 8.34655C35.2218 7.41736 36.521 6.86643 37.85 6.74261C39.1798 6.61873 40.5087 6.92512 41.4862 7.6693C41.8567 7.95112 42.1358 8.21969 42.3533 8.53912C42.5703 8.85775 42.736 9.24179 42.8596 9.76529C43.1106 10.8279 43.1796 12.4188 43.1796 15.1105V18.9813L43.9033 20.0627C44.2944 20.6473 44.4897 20.9757 44.5532 21.1955C44.5811 21.2923 44.5745 21.3407 44.5652 21.3693C44.5589 21.389 44.5461 21.4145 44.5186 21.4485C44.501 21.4489 44.4814 21.4497 44.4597 21.4501C44.3315 21.4529 44.1308 21.4563 43.8421 21.4593C43.2644 21.4654 42.3346 21.4696 40.9296 21.462C40.031 21.4578 39.1539 21.4696 38.4783 21.4744C38.1392 21.4768 37.8523 21.4775 37.6366 21.4737C37.5285 21.4718 37.4415 21.4687 37.3762 21.4645C37.3019 21.4598 37.2799 21.4549 37.2856 21.4564C37.2707 21.4523 37.1751 21.4167 37.1838 21.1562C37.1921 20.9065 37.3084 20.5338 37.6114 20.0949C37.7825 19.8471 37.9488 19.5771 38.0802 19.3401C38.2052 19.1148 38.3172 18.8866 38.3552 18.7347C38.3694 18.6782 38.3768 18.6004 38.382 18.5295C38.388 18.4499 38.393 18.3491 38.3973 18.2313C38.4061 17.9952 38.4121 17.6818 38.4153 17.3143C38.4202 16.7627 38.4189 16.0854 38.4105 15.3571L38.3997 14.6145C38.3737 13.0698 38.3467 12.1254 38.2939 11.508C38.2407 10.8878 38.1591 10.5614 38.0034 10.2725L37.9575 10.1906Z" fill="#F786F4"/>
<path d="M83.8218 12.9539C83.7717 10.8757 83.1114 8.95535 82.0248 7.36821C82.0081 7.34482 81.9886 7.31852 81.9663 7.28929C81.9663 7.28929 81.9692 7.28929 81.9747 7.28929C81.8967 7.16653 81.8159 7.04376 81.7323 6.921C81.3896 6.43872 81.5568 5.94768 81.5819 5.44786C81.6571 4.07116 81.8075 2.69446 81.3729 1.34408C81.2141 0.844256 80.8631 0.809186 80.4702 0.975792C79.275 1.49315 78.3055 2.33494 77.57 3.42227C77.5645 3.43396 77.5589 3.44273 77.5533 3.44857C77.4363 3.61518 77.2273 3.68533 77.0434 3.62395C76.1324 3.33458 75.1712 3.17675 74.1682 3.17675C73.182 3.17675 72.2376 3.32582 71.3516 3.60642C71.1677 3.6678 70.9671 3.59765 70.8501 3.43104V3.42227C70.1146 2.33494 69.1451 1.49315 67.9499 0.975792C67.557 0.809186 67.206 0.844256 67.0472 1.34408C66.6126 2.69446 66.7547 4.07116 66.8299 5.44786C66.855 5.86876 66.9803 6.28965 66.8132 6.70178C66.0944 7.57865 65.5093 8.58706 65.1165 9.69189C64.7237 10.788 64.5064 11.963 64.5064 13.1994C64.5064 13.2345 64.5064 13.2695 64.5064 13.3046C64.5064 13.3222 64.5064 13.3368 64.5064 13.3485C64.4896 14.8655 64.8156 16.2685 65.4257 17.4698C66.6627 19.9426 69.0782 21.5472 72.1205 21.5735C72.1596 21.5735 72.1986 21.5735 72.2376 21.5735C72.3462 21.5648 72.597 21.5472 72.8561 21.5122C76.1157 21.1263 78.7819 18.6097 79.4004 15.1899C80.1025 11.3141 77.5783 7.9031 73.625 8.20124C70.7498 8.42045 68.6937 11.1738 69.1785 14.1464C69.4293 15.6722 70.231 16.3311 70.5236 16.5822C70.9701 16.9655 72.0698 17.3781 73.1981 17.196C73.7414 17.1083 75.4052 16.8472 75.8482 14.9882C76.0405 14.2779 75.8733 13.366 75.33 12.796C74.7951 12.2261 74.2005 11.9679 73.3653 12.1101C73.2929 12.1219 73.2399 12.1444 73.1569 12.1734C72.2041 12.5067 72.3546 13.9184 73.4244 13.9535C73.4467 13.9535 73.469 13.9535 73.4912 13.9535C73.5414 13.9535 73.5999 13.9447 73.65 13.936C73.9927 13.8746 74.2685 14.2253 74.1432 14.6375C74.1209 14.7018 74.0903 14.7602 74.0512 14.8128C73.7671 15.2162 73.1151 15.2951 72.6471 15.1811C71.6023 14.9268 71.1761 13.5764 71.7194 12.3313C72.2125 11.2177 73.4912 10.7003 74.6447 10.902C75.6978 11.0335 76.776 12.2173 76.9264 13.4975C77.3527 17.1453 73.976 19.5392 70.9421 18.522C68.3594 17.6451 66.9971 14.9619 67.557 12.1384C68.3678 8.00832 71.9701 5.9389 75.564 6.71055C80.4619 7.77157 82.0248 13.0328 80.2195 17.2418C79.2917 19.4077 77.6034 20.7844 75.7061 21.9506C75.0542 22.354 74.5109 22.7836 74.0847 23.2308C73.0065 24.3796 72.9253 25.2633 72.9892 25.6579C73.0441 25.9973 73.2287 26.1195 73.377 26.1775C73.4925 26.2227 73.593 26.2447 73.716 26.2127C73.9575 26.1677 74.2046 26 74.3683 25.4386C74.5739 24.733 75.7061 23.7726 77.6619 22.8187C81.632 21.0299 83.8469 17.2769 83.8218 13.3134C83.8218 13.2725 83.8218 13.2345 83.8218 13.1994C83.8218 13.1176 83.8218 13.0358 83.8218 12.9539Z" fill="#F786F4"/>
<path d="M51.7747 2.58012C51.7747 4.00508 50.5783 5.16024 49.1024 5.16024C47.6266 5.16024 46.4302 4.00508 46.4302 2.58012C46.4302 1.15516 47.6266 0 49.1024 0C50.5783 0 51.7747 1.15516 51.7747 2.58012Z" fill="#F786F4"/>
<path d="M6.69291 2.58012C6.69291 4.00508 5.49651 5.16024 4.02067 5.16024C2.54482 5.16024 1.34842 4.00508 1.34842 2.58012C1.34842 1.15516 2.54482 0 4.02067 0C5.49651 0 6.69291 1.15516 6.69291 2.58012Z" fill="#F786F4"/>
</svg>
