<svg id="svg885" viewBox="0 0 64 64" xmlns="http://www.w3.org/2000/svg"><g id="layer1" transform="translate(0,-233)"><path d="m 37.88161,289.13363 q 0,-2.89095 1.694714,-3.88783 1.694714,-1.09658 4.884755,-1.09658 H 47.95015 V 255.33941 L 36.884739,280.46077 H 27.81307 L 16.049847,255.4391 v 28.71012 h 3.489107 q 3.289717,0 4.884721,1.09658 1.694714,0.99688 1.694714,3.88783 0,4.98437 -6.579435,4.98437 H 6.6791129 Q 0,294.118 0,289.13363 q 0,-4.98441 6.0809823,-4.98441 v -38.08075 q -5.1837865,-0.49846 -5.1837865,-5.08406 0,-1.99376 1.3956155,-3.48907 Q 3.6884604,236 7.0778891,236 H 18.342659 L 32.099693,265.70697 45.55763,236 h 10.965738 q 6.579469,0 6.579469,4.98441 0,4.48591 -5.18382,4.98437 v 38.18044 Q 64,284.14922 64,289.13363 64,294.118 57.420561,294.118 H 44.461079 q -6.579469,0 -6.579469,-4.98437 z" style="font-style:normal;font-variant:normal;font-weight:bold;font-stretch:normal;font-size:29.8034px;line-height:1.25;font-family:FreeMono;-inkscape-font-specification:'FreeMono, Bold';font-variant-ligatures:normal;font-variant-caps:normal;font-variant-numeric:normal;font-feature-settings:normal;text-align:start;letter-spacing:0px;word-spacing:0px;writing-mode:lr-tb;text-anchor:start;fill:#000000;fill-opacity:1;stroke:none;stroke-width:2.4922" id="path838" /></g></svg>