<svg viewBox="0 0 64 64" fill="none" id="svg28" xmlns="http://www.w3.org/2000/svg"><path d="m 0,20.672468 c 0,3.653376 2.9616353,6.614935 6.6150121,6.614935 3.6533309,0 6.6149969,-2.961559 6.6149969,-6.614935 0,-3.653377 -2.961666,-6.614937 -6.6149969,-6.614937 C 2.9616353,14.057531 0,17.019091 0,20.672468 Z" fill="#ffcc33" id="path2" style="stroke-width:1.52383" /><path d="m 0,53.747299 c 0,3.653377 2.9616353,6.614937 6.6150121,6.614937 3.6533309,0 6.6149969,-2.96156 6.6149969,-6.614937 0,-3.653377 -2.961666,-6.615088 -6.6149969,-6.615088 C 2.9616353,47.132211 0,50.093922 0,53.747299 Z" fill="#ffcc33" id="path4" style="stroke-width:1.52383" /><path d="m 2.4806848,37.20996 c 0,2.283455 1.8510545,4.134449 4.134434,4.134449 2.2834099,0 4.1344492,-1.850994 4.1344492,-4.134449 0,-2.283457 -1.8510393,-4.13445 -4.1344492,-4.13445 -2.2833795,0 -4.134434,1.850993 -4.134434,4.13445 z" fill="#ffcc33" id="path6" style="stroke-width:1.52383" /><path d="m 2.4806848,4.1344416 c 0,2.2834101 1.8510545,4.1344493 4.134434,4.1344493 2.2834099,0 4.1344492,-1.8510392 4.1344492,-4.1344493 C 10.749568,1.8510468 8.8985287,0 6.6151188,0 4.3317393,0 2.4806848,1.8510468 2.4806848,4.1344416 Z" fill="#ffcc33" id="path8" style="stroke-width:1.52383" /><path d="m 25.384989,43.32828 c 0,3.653224 2.961711,6.614935 6.614935,6.614935 3.653376,0 6.615087,-2.961711 6.615087,-6.614935 0,-3.653376 -2.961711,-6.615089 -6.615087,-6.615089 -3.653224,0 -6.614935,2.961713 -6.614935,6.615089 z" fill="#ffcc33" id="path10" style="stroke-width:1.52383" /><path d="m 27.865627,59.86562 c 0,2.283303 1.851146,4.134753 4.134449,4.134753 2.283456,0 4.13445,-1.85145 4.13445,-4.134753 0,-2.283304 -1.850994,-4.134297 -4.13445,-4.134297 -2.283303,0 -4.134449,1.850993 -4.134449,4.134297 z" fill="#ffcc33" id="path12" style="stroke-width:1.52383" /><path d="m 27.865627,26.79094 c 0,2.283456 1.851146,4.134449 4.134449,4.134449 2.283456,0 4.13445,-1.850993 4.13445,-4.134449 0,-2.283303 -1.850994,-4.13445 -4.13445,-4.13445 -2.283303,0 -4.134449,1.851147 -4.134449,4.13445 z" fill="#ffcc33" id="path14" style="stroke-width:1.52383" /><path d="m 27.865627,10.25357 c 0,2.283349 1.851146,4.134479 4.134449,4.134479 2.283456,0 4.13445,-1.85113 4.13445,-4.134479 0,-2.2834103 -1.850994,-4.1344495 -4.13445,-4.1344495 -2.283303,0 -4.134449,1.8510392 -4.134449,4.1344495 z" fill="#ffcc33" id="path16" style="stroke-width:1.52383" /><path d="m 50.769975,20.672468 c 0,3.653376 2.96156,6.614935 6.614937,6.614935 3.65353,0 6.615088,-2.961559 6.615088,-6.614935 0,-3.653377 -2.961558,-6.614937 -6.615088,-6.614937 -3.653377,0 -6.614937,2.96156 -6.614937,6.614937 z" fill="#ffcc33" id="path18" style="stroke-width:1.52383" /><path d="m 53.252139,4.1344416 c 0,2.2834101 1.850993,4.1344493 4.13445,4.1344493 2.283151,0 4.134448,-1.8510392 4.134448,-4.1344493 C 61.521037,1.8510468 59.66974,0 57.386589,0 c -2.283457,0 -4.13445,1.8510468 -4.13445,4.1344416 z" fill="#ffcc33" id="path20" style="stroke-width:1.52383" /><path d="m 53.252139,37.20996 c 0,2.283455 1.850993,4.134449 4.13445,4.134449 2.283151,0 4.134448,-1.850994 4.134448,-4.134449 0,-2.283457 -1.851297,-4.13445 -4.134448,-4.13445 -2.283457,0 -4.13445,1.850993 -4.13445,4.13445 z" fill="#ffcc33" id="path22" style="stroke-width:1.52383" /><path d="m 53.252139,53.747452 c 0,2.283304 1.850993,4.134449 4.13445,4.134449 2.283151,0 4.134448,-1.851145 4.134448,-4.134449 0,-2.283457 -1.851297,-4.13445 -4.134448,-4.13445 -2.283457,0 -4.13445,1.850993 -4.13445,4.13445 z" fill="#ffcc33" id="path24" style="stroke-width:1.52383" /></svg>