<?xml version="1.0" encoding="UTF-8"?>
<svg width="401px" height="160px" viewBox="0 0 401 160" version="1.1" xmlns="http://www.w3.org/2000/svg" xmlns:xlink="http://www.w3.org/1999/xlink">
    <title>å¤¸å…‹LOGO@3x</title>
    <g id="ðŸ”´finalæ ·å¼" stroke="none" stroke-width="1" fill="none" fill-rule="evenodd">
        <g id="å¤¸å…‹LOGO">
            <path d="M79.9995524,0 C124.183634,0 160,35.8174616 160,80.0008952 C160,124.183434 124.183634,160 79.9995524,160 C35.8154707,160 0,124.183434 0,80.0008952 C0,35.8174616 35.8154707,0 79.9995524,0 M79.9995524,40.0008952 C57.9088544,40.0008952 39.9997762,57.9091784 39.9997762,80.0008952 C39.9997762,101.870594 57.5516576,119.641906 79.3379773,119.994629 L79.9995524,120 C93.4664988,120 84.0719541,102.862514 93.4664988,93.467917 C102.764359,84.1709004 119.642132,93.2745462 119.993957,80.4135986 L120.000224,80.0008952 C120.000224,57.9091784 102.09025,40.0008952 79.9995524,40.0008952" id="Fill-1" fill="#0D53FF"></path>
            <path d="M234.604622,39.0959461 L240.735616,39.0959461 C244.748352,46.2218351 248.986665,51.8663245 253.445161,56.0320916 L219.218722,56.0320916 C225.017193,51.4040565 230.144329,45.7577822 234.604622,39.0959461 M284.862234,55.4243608 C274.200848,53.4548132 264.634988,45.7693835 260.250186,39.0959461 L283.076499,39.0959461 C283.705596,39.0959461 284.215164,38.5899499 284.215164,37.9652634 L284.215164,24.9566116 C284.215164,24.3328175 283.705596,23.8259289 283.076499,23.8259289 L242.966212,23.8259289 C243.188193,23.3645533 243.485666,22.6238535 243.856833,21.6047219 C244.530865,19.9974926 245.054812,18.7088534 245.431371,17.7343424 C245.450244,17.6959688 245.482598,17.6629496 245.498774,17.6236836 L245.903194,16.6661283 C246.36513,15.5042113 246.308511,15 245.078179,15 L228.035957,15 C227.518301,15 227.04558,15.2900331 226.813713,15.7496239 L226.160351,17.0498644 C224.995624,19.4834648 223.798544,21.746615 222.563718,23.8259289 L190.591242,23.8259289 C189.962145,23.8259289 189.452577,24.3328175 189.452577,24.9566116 L189.452577,37.9652634 C189.452577,38.5899499 189.962145,39.0959461 190.591242,39.0959461 L212.402013,39.0959461 C207.289257,45.8318522 199.041804,51.1541818 187.869052,55.5510829 C187.349598,55.7563371 187,56.2534091 187,56.8084877 L187,70.8353786 C187,71.6153444 187.769295,72.1793472 188.518818,71.9473207 C195.732757,69.709158 202.360736,66.8998532 208.404555,63.5256533 L208.404555,69.4423276 C208.404555,70.0759382 208.922212,70.5908584 209.561194,70.5908584 L264.998965,70.5908584 C265.637947,70.5908584 266.155604,70.0759382 266.155604,69.4423276 L266.155604,64.7759188 C271.581111,67.4611787 277.72199,69.5797586 284.580938,71.1280889 C285.304399,71.2913998 286,70.738106 286,70.0018682 L286,56.756728 C286,56.0954526 285.516494,55.544836 284.862234,55.4243608" id="Fill-3" fill="#151515"></path>
            <path d="M326.132995,85.2536063 L374.784234,85.2536063 L374.784234,68.2524427 L326.132995,68.2524427 L326.132995,85.2536063 Z M399.865285,125.47738 L386.223629,125.480967 L376.408838,125.480967 L376.408838,100.375515 L391.341041,100.375515 C391.96706,100.375515 392.475756,99.8671474 392.475756,99.2395336 L392.475756,54.2629291 C392.475756,53.6362118 391.96706,53.1278445 391.341041,53.1278445 L359.826954,53.1278445 L359.826954,41.4497432 L398.421591,41.4497432 C399.04761,41.4497432 399.556306,40.941376 399.556306,40.3137621 L399.556306,26.8989635 C399.556306,26.2722462 399.04761,25.7629823 398.421591,25.7629823 L359.826954,25.7629823 L359.826954,23.2857007 L359.826954,17.1359811 C359.826954,16.5083673 359.319153,16 358.692239,16 L342.643232,16 C342.017213,16 341.508517,16.5083673 341.508517,17.1359811 L341.508517,23.2857007 L341.508517,25.7629823 L303.244353,25.7629823 C302.617439,25.7629823 302.109638,26.2722462 302.109638,26.8998601 L302.109638,40.3137621 C302.109638,40.941376 302.617439,41.4497432 303.244353,41.4497432 L341.508517,41.4497432 L341.508517,53.1278445 L309.577084,53.1278445 C308.950169,53.1278445 308.442369,53.6362118 308.442369,54.2629291 L308.442369,99.2395336 C308.442369,99.8671474 308.950169,100.375515 309.577084,100.375515 L326.099858,100.375515 C326.099858,114.625936 314.45179,123.534467 302.101578,126.118443 C301.463917,126.252035 301,126.796266 301,127.448088 L301,142.826422 C301,143.533832 301.629601,144.087925 302.329058,143.988404 C327.336671,140.416384 342.810708,123.564951 344.099464,100.375515 L358.418188,100.375515 L358.418188,139.914293 C358.418188,140.799229 359.134661,141.517398 360.01861,141.517398 L399.865285,141.517398 C400.492199,141.517398 401,141.008134 401,140.381417 L401,126.613362 C401,125.985748 400.492199,125.47738 399.865285,125.47738 L399.865285,125.47738 Z" id="Fill-5" fill="#151515"></path>
            <path d="M283.863885,79 L188.136115,79 C187.509324,79 187,79.5054334 187,80.1294252 L187,93.121827 C187,93.7458188 187.509324,94.2512522 188.136115,94.2512522 L205.064855,94.2512522 L198.009644,118.348926 C197.798024,119.071865 198.343215,119.793913 199.100027,119.793913 L256.671553,119.793913 L250.563254,140.554122 C250.34984,141.277061 250.895928,142 251.653637,142 L267.366456,142 C267.97083,142 268.502571,141.605102 268.67384,141.029247 L279.175057,105.656932 C279.389368,104.933101 278.844176,104.207488 278.084674,104.207488 L219.950023,104.207488 L222.84725,94.2512522 L283.863885,94.2512522 C284.491573,94.2512522 285,93.7458188 285,93.121827 L285,80.1294252 C285,79.5054334 284.491573,79 283.863885,79" id="Fill-7" fill="#151515"></path>
        </g>
    </g>
</svg>