<?xml version="1.0" encoding="utf-8"?>
<!-- Generator: Adobe Illustrator 28.1.0, SVG Export Plug-In . SVG Version: 6.00 Build 0)  -->
<svg version="1.1" id="Layer_1" xmlns="http://www.w3.org/2000/svg" xmlns:xlink="http://www.w3.org/1999/xlink" x="0px" y="0px"
	 viewBox="0 0 585.1 154.5" style="enable-background:new 0 0 585.1 154.5;" xml:space="preserve">
<style type="text/css">
	.st0{enable-background:new    ;}
	.st1{fill:#393745;}
	.st2{fill-rule:evenodd;clip-rule:evenodd;fill:#ED1B2F;}
</style>
<g>
	<g class="st0">
		<path class="st1" d="M0.1,124.7h6l7.4,24.6l7.5-24.6h6V154h-3.6v-26l-8.3,26h-3.5l-8.2-26v26H0.1V124.7z"/>
		<path class="st1" d="M50.7,127.2c1.3,1.9,1.9,4.9,1.9,9.1v5.5c0,8.6-2.1,12.7-9.5,12.7c-6.2,0-9-3.5-9-11.4v-7.6
			c0-4,0.6-6.9,2-8.6c1.4-1.9,3.8-2.9,7.2-2.9C46.8,123.9,49.2,125,50.7,127.2z M37.9,143.2c0,5.7,1.3,8.1,5.3,8.1
			c2.5,0,4.1-0.7,4.9-2.9c0.4-1.2,0.6-3.5,0.6-6.7v-6.9c0-5.7-1.9-7.6-5.4-7.6c-3.9,0-5.4,2.2-5.4,7.3V143.2z"/>
		<path class="st1" d="M56.7,124.7h19.2v3.2h-7.7V154h-3.8v-26.1h-7.7V124.7z"/>
		<path class="st1" d="M96.6,127.2c1.3,1.9,1.9,4.9,1.9,9.1v5.5c0,8.6-2.1,12.7-9.5,12.7c-6.2,0-9-3.5-9-11.4v-7.6
			c0-4,0.6-6.9,2-8.6c1.4-1.9,3.8-2.9,7.2-2.9C92.7,123.9,95.2,125,96.6,127.2z M83.8,143.2c0,5.7,1.3,8.1,5.3,8.1
			c2.5,0,4.1-0.7,4.9-2.9c0.4-1.2,0.6-3.5,0.6-6.7v-6.9c0-5.7-1.9-7.6-5.4-7.6c-3.9,0-5.4,2.2-5.4,7.3V143.2z"/>
		<path class="st1" d="M105.3,124.7h10.3c4,0,6.9,2.7,6.9,7.3c0,3.6-1.9,6.1-5.4,6.8c3.4,0.5,4.8,2.2,4.8,7.6c0,2.6,0.4,5.2,1,7.7
			H119c-0.4-1-0.6-2.2-0.7-3.3c-0.1-2.8-0.3-5-0.3-5.5c-0.3-3.9-1.8-4.7-5.7-4.7h-3.2V154h-3.8V124.7z M109.1,127.9v9.4h4.5
			c3.4,0,5-1.6,5-4.9c0-3-1.4-4.5-4.2-4.5H109.1z"/>
		<path class="st1" d="M137.9,124.7h6l7.4,24.6l7.5-24.6h6V154h-3.6v-26l-8.3,26h-3.5l-8.2-26v26h-3.5V124.7z"/>
		<path class="st1" d="M178.6,124.7h4.8l9.5,29.3h-4.2l-2.1-7h-11.3l-2.2,7h-3.8L178.6,124.7z M185.7,143.8l-4.8-15.7l-4.7,15.7
			H185.7z"/>
		<path class="st1" d="M197.4,124.7h5.2l11.5,25.1v-25.1h3.3V154h-5.1l-11.7-25.4V154h-3.4V124.7z"/>
		<path class="st1" d="M224.7,124.7h3.7v20.4c0,4,1.8,6.3,5.4,6.3c3.7,0,5.4-2.2,5.4-6.7v-20h3.7v19.7c0,6.8-3,10.2-9.1,10.2
			c-5.9,0-9.1-3.4-9.1-9.4V124.7z"/>
	</g>
	<g class="st0">
		<path class="st1" d="M249.6,124.7h14.5v3.2h-10.8v9.4h10.2v3.2h-10.2V154h-3.8V124.7z"/>
	</g>
	<g class="st0">
		<path class="st1" d="M273.4,124.7h4.8l9.5,29.3h-4.2l-2.1-7h-11.3l-2.2,7h-3.8L273.4,124.7z M280.5,143.8l-4.8-15.7l-4.7,15.7
			H280.5z"/>
		<path class="st1" d="M308.4,132.2v0.8h-3.9v-0.4c0-3.6-1.3-5-4.2-5c-2.2,0-3.7,0.8-4.4,2.4c-0.5,1.2-0.8,3.1-0.8,5.7v7.1
			c0,5.8,1.2,8.5,5,8.5c3.2,0,4.8-2,4.9-6.1h3.9v0.5c0,5.9-2.9,8.8-8.8,8.8c-2.1,0-3.7-0.4-5.1-1.3c-2.6-1.8-3.7-5.2-3.7-11.3v-6.2
			c0-8.1,2.8-11.3,9.4-11.3C306,124.3,308.4,126.8,308.4,132.2z"/>
		<path class="st1" d="M311.5,124.7h19.2v3.2h-7.7V154h-3.8v-26.1h-7.7V124.7z"/>
		<path class="st1" d="M334.5,124.7h3.7v20.4c0,4,1.8,6.3,5.4,6.3c3.7,0,5.4-2.2,5.4-6.7v-20h3.7v19.7c0,6.8-3,10.2-9.1,10.2
			c-5.9,0-9.1-3.4-9.1-9.4V124.7z"/>
		<path class="st1" d="M359.3,124.7h10.3c4,0,6.9,2.7,6.9,7.3c0,3.6-1.9,6.1-5.4,6.8c3.4,0.5,4.8,2.2,4.8,7.6c0,2.6,0.4,5.2,1,7.7
			h-3.9c-0.4-1-0.6-2.2-0.7-3.3c-0.1-2.8-0.3-5-0.3-5.5c-0.3-3.9-1.8-4.7-5.7-4.7H363V154h-3.8V124.7z M363,127.9v9.4h4.5
			c3.4,0,5-1.6,5-4.9c0-3-1.4-4.5-4.2-4.5H363z"/>
		<path class="st1" d="M382.4,124.7h3.8V154h-3.8V124.7z"/>
		<path class="st1" d="M393.4,124.7h5.2l11.5,25.1v-25.1h3.3V154h-5.1l-11.7-25.4V154h-3.4V124.7z"/>
		<path class="st1" d="M437.1,127c0.8,1.3,1.1,3,1.1,5.1v0.4h-3.9c0-3.6-1.6-5.4-4.8-5.4c-2.4,0-3.9,0.7-4.7,2
			c-0.7,1.3-1.1,3.6-1.1,6.9v6.7c0,6.2,1.5,8.6,6.1,8.6c1.8,0,3.3-0.4,4.5-1.3v-8.7h-5.4v-3.3h9.1v14.3c-2.6,1.4-5.4,2.2-8.4,2.2
			c-4.1,0-6.9-1.4-8.3-4.1c-1-2-1.5-5.1-1.5-9.3V137c0-4.6,0.6-7.8,1.9-9.7c1.5-2.2,4.1-3.3,8-3.3C433.4,124,435.9,125,437.1,127z"
			/>
		<path class="st1" d="M470.9,132.2v0.8H467v-0.4c0-3.6-1.3-5-4.2-5c-2.2,0-3.7,0.8-4.4,2.4c-0.5,1.2-0.8,3.1-0.8,5.7v7.1
			c0,5.8,1.2,8.5,5,8.5c3.2,0,4.8-2,4.9-6.1h3.9v0.5c0,5.9-2.9,8.8-8.8,8.8c-2.1,0-3.7-0.4-5.1-1.3c-2.6-1.8-3.7-5.2-3.7-11.3v-6.2
			c0-8.1,2.8-11.3,9.4-11.3C468.4,124.3,470.9,126.8,470.9,132.2z"/>
		<path class="st1" d="M474.9,124.7h17.5v3.4l-14.1,22.7h14.5v3.2h-18.3v-3.7l13.7-22.4h-13.2V124.7z"/>
		<path class="st1" d="M496.9,124.7H512v3.2h-11.4v9.4h10.6v3.2h-10.6v10.2h11.7v3.2h-15.4V124.7z"/>
		<path class="st1" d="M534,132.2v0.8h-3.9v-0.4c0-3.6-1.3-5-4.2-5c-2.2,0-3.7,0.8-4.4,2.4c-0.5,1.2-0.8,3.1-0.8,5.7v7.1
			c0,5.8,1.2,8.5,5,8.5c3.2,0,4.8-2,4.9-6.1h3.9v0.5c0,5.9-2.9,8.8-8.8,8.8c-2.1,0-3.7-0.4-5.1-1.3c-2.6-1.8-3.7-5.2-3.7-11.3v-6.2
			c0-8.1,2.8-11.3,9.4-11.3C531.6,124.3,534,126.8,534,132.2z"/>
		<path class="st1" d="M540.1,124.7h3.7v12.5h10.3v-12.5h3.7V154h-3.7v-13.5h-10.3V154h-3.7V124.7z"/>
	</g>
	<rect x="0" y="92.2" class="st1" width="359.5" height="2.5"/>
	<polygon class="st2" points="141.9,62.2 155.5,62.2 155.5,39.4 178.9,2.2 163.2,2.2 148.7,27.4 134.2,2.2 118.5,2.2 141.9,39.4 	
		"/>
	<path class="st2" d="M54.2,31.8C54.2,14.2,68.5,0,86.1,0s31.8,14.2,31.8,31.8s-14.2,31.8-31.8,31.8S54.2,49.4,54.2,31.8
		C54.2,31.8,54.2,31.8,54.2,31.8z M86.1,52c9.8,0,17.8-9,17.8-20.2s-8-20.2-17.8-20.2s-17.8,9-17.8,20.2S76.3,52,86.1,52z"/>
	<polygon class="st2" points="32.1,62.2 18.7,62.2 18.7,13.3 0,13.3 0,2.2 50.8,2.2 50.8,13.3 32.1,13.3 	"/>
	<path class="st2" d="M334.8,2.2h-16.7l-24.8,60H309l5.2-13.5h24.6l5.2,13.5h15.7L334.8,2.2L334.8,2.2z M318,38.6l8.4-22h0.1l8.4,22
		H318L318,38.6z"/>
	<polygon class="st2" points="279.2,62.2 265.8,62.2 265.8,13.3 247.1,13.3 247.1,2.2 298,2.2 298,13.3 279.2,13.3 	"/>
	<path class="st2" d="M179.5,31.8c0-17.6,14.2-31.8,31.8-31.8s31.8,14.2,31.8,31.8s-14.2,31.8-31.8,31.8S179.5,49.4,179.5,31.8z
		 M211.3,52c9.8,0,17.8-9,17.8-20.2s-8-20.2-17.8-20.2s-17.8,9-17.8,20.2S201.5,52,211.3,52L211.3,52z"/>
</g>
</svg>
