<svg xmlns="http://www.w3.org/2000/svg" fill="none" viewBox="0 0 105 24" class="text-[#000] dark:text-white h-[25px]"><g clip-path="url(#logo-liblib_svg__a)"><path fill="currentColor" d="M102.42 8.143c0-.175.145-.32.32-.32h1.94c.175 0 .32.145.32.32v14.603c0 .175-.145.32-.32.32h-1.94a.323.323 0 0 1-.32-.32zM93.966 10.885a.32.32 0 0 0-.601 0l-2.532 6.97a.32.32 0 0 0 .3.433h5.079a.32.32 0 0 0 .3-.432zm-3.618 9.338a.32.32 0 0 0-.3.214l-.86 2.416a.32.32 0 0 1-.3.214h-2.071a.32.32 0 0 1-.3-.428L91.72 8.036a.32.32 0 0 1 .3-.214h3.288a.32.32 0 0 1 .301.214l5.185 14.603a.32.32 0 0 1-.301.428h-2.051a.32.32 0 0 1-.301-.214l-.858-2.416a.32.32 0 0 0-.301-.214h-6.64zM79.896 13.894c-2.086 0-3.59 1.57-3.59 3.704s1.504 3.705 3.59 3.705 3.608-1.527 3.608-3.705-1.523-3.704-3.608-3.704m5.932 3.704c0 3.423-2.319 5.902-5.476 5.902-1.334 0-2.488-.462-3.38-1.269-.229-.204-.636-.053-.636.253v.267a.32.32 0 0 1-.32.321h-1.64a.323.323 0 0 1-.32-.32V7.501c0-.175.146-.321.32-.321h1.703a.32.32 0 0 1 .32.32v5.173c0 .306.412.457.64.253.878-.783 2.023-1.225 3.313-1.225 3.182 0 5.476 2.474 5.476 5.901zM69.43 11.055c0-.175.145-.32.32-.32h1.678c.174 0 .32.145.32.32v11.691c0 .175-.146.321-.32.321h-1.679a.32.32 0 0 1-.32-.32zM67.814 22.746c0 .175-.145.32-.32.32h-9.113a.323.323 0 0 1-.32-.32V8.143c0-.175.145-.32.32-.32h1.94c.175 0 .32.145.32.32v12.362c0 .175.14.32.32.32h6.533c.175 0 .32.147.32.322zM50.223 13.894c-2.085 0-3.589 1.57-3.589 3.704s1.504 3.705 3.589 3.705 3.608-1.527 3.608-3.705-1.522-3.704-3.608-3.704m5.927 3.704c0 3.423-2.318 5.902-5.476 5.902-1.334 0-2.488-.462-3.38-1.269-.228-.204-.636-.053-.636.253v.267c0 .175-.145.321-.32.321h-1.64a.323.323 0 0 1-.32-.32V7.501c0-.175.146-.321.32-.321h1.703a.32.32 0 0 1 .32.32v5.173c0 .306.413.457.64.253.878-.783 2.023-1.225 3.313-1.225 3.182 0 5.476 2.474 5.476 5.901zM39.757 11.055c0-.175.145-.32.32-.32h1.678c.174 0 .32.145.32.32v11.691a.32.32 0 0 1-.32.321h-1.678a.32.32 0 0 1-.32-.32zM38.142 22.746c0 .175-.146.32-.32.32h-9.114a.323.323 0 0 1-.32-.32V8.143c0-.175.145-.32.32-.32h1.94c.175 0 .32.145.32.32v12.362c0 .175.146.32.32.32h6.533c.175 0 .32.147.32.322z"></path><path fill="#0867F5" d="M13.925 9.277c.05.176.073.264.062.352-.012.088-.056.165-.15.325L10.824 15.1c-.344.595-.522.892-.389 1.112.128.22.478.22 1.172.22h6.001c.184 0 .278 0 .361.033.084.033.15.1.278.226l5.862 5.79c.656.644.983.969.867 1.244-.117.275-.578.275-1.506.275H4.374c-.928 0-1.389 0-1.505-.275-.117-.275.21-.6.866-1.244l3.517-3.473c.956-.947 1.434-1.415 1.262-1.712-.173-.297-.828-.121-2.134.22l-4.79 1.266c-.894.237-1.344.358-1.527.121-.184-.236.05-.633.51-1.425l9.552-16.325c.461-.793.694-1.189.995-1.15.3.038.416.478.66 1.365l2.145 7.903z"></path></g><defs><clipPath id="logo-liblib_svg__a"><path fill="#fff" d="M0 0h105v24H0z"></path></clipPath></defs></svg>