<svg xmlns="http://www.w3.org/2000/svg" viewBox="0 0 64 63.999999" id="svg2"><g id="g898" transform="matrix(2.0393883,0,0,2.0393883,-11.775462,-29.181652)"><path d="M 35.053887,37.845636 21.464924,45.690981 7.8761053,37.845636 v -15.6911 l 13.5888187,-7.845514 13.588963,7.845514 v 15.6911" style="fill:#2e66b6;fill-opacity:1;fill-rule:nonzero;stroke:none;stroke-width:0.02413143" id="path14" /><path d="m 16.978264,33.471139 1.794702,-1.086108 c 0.346214,0.613952 0.66125,1.133333 1.416756,1.133333 0.724136,0 1.180655,-0.283255 1.180655,-1.385193 V 24.63988 h 2.203875 v 7.524686 c 0,2.282665 -1.337967,3.321643 -3.290055,3.321643 -1.763115,0 -2.786432,-0.913133 -3.305933,-2.01507" style="fill:#ffffff;fill-opacity:1;fill-rule:nonzero;stroke:none;stroke-width:0.02413143" id="path16" /><path d="m 24.770833,33.235109 1.79451,-1.038979 c 0.472348,0.771361 1.086276,1.338088 2.17248,1.338088 0.913133,0 1.495497,-0.456615 1.495497,-1.0863 0,-0.755628 -0.598194,-1.023221 -1.605681,-1.463909 l -0.550896,-0.236223 c -1.59002,-0.676911 -2.644829,-1.526892 -2.644829,-3.321571 0,-1.652906 1.259347,-2.912253 3.227192,-2.912253 1.401047,0 2.408534,0.487986 3.13267,1.763091 L 30.07579,27.37899 c -0.377801,-0.676814 -0.786998,-0.944408 -1.416684,-0.944408 -0.645419,0 -1.054809,0.40927 -1.054809,0.944408 0,0.661274 0.40939,0.928867 1.353822,1.33816 l 0.550969,0.23615 c 1.873298,0.802829 2.927987,1.621415 2.927987,3.463126 0,1.98358 -1.558336,3.069783 -3.652027,3.069783 -2.046562,0 -3.368892,-0.975995 -4.014215,-2.2511" style="fill:#ffffff;fill-opacity:1;fill-rule:nonzero;stroke:none;stroke-width:0.02413143" id="path18" /><path d="M 21.464924,45.690981 35.053887,37.845539 H 7.8761053 Z" style="fill:#2f2e2d;fill-opacity:1;fill-rule:nonzero;stroke:none;stroke-width:0.02413143" id="path20" /></g></svg>