<svg width="84" height="26" viewBox="0 0 84 26" fill="none" xmlns="http://www.w3.org/2000/svg">
<path d="M8.54106 7.50781L15.2522 18.3544H12.6732L7.59871 9.66602L2.52418 18.3544H0L6.71119 7.50781H8.54106ZM12.2016 14.4252V16.2787H5.79584L6.87739 14.4252H12.2016ZM35.9401 16.4176C36.4758 16.362 36.8825 16.2559 37.16 16.0994C37.4376 15.9428 37.613 15.7349 37.6873 15.4765C37.7607 15.2181 37.7978 14.8864 37.7978 14.4807V7.50781H40.0166V14.0102C40.0166 14.8957 39.9424 15.6289 39.7947 16.2096C39.6462 16.7904 39.3459 17.2475 38.8937 17.5791C38.4407 17.9108 37.8079 18.1465 36.9938 18.2845C36.1805 18.4226 35.1083 18.4924 33.777 18.4924C32.4457 18.4924 31.3414 18.4234 30.5188 18.2845C29.6963 18.1465 29.0585 17.9108 28.6055 17.5791C28.1524 17.2467 27.8521 16.7904 27.7044 16.2096C27.556 15.6289 27.4826 14.8957 27.4826 14.0102V7.50781H29.7013V14.4807C29.7013 14.8864 29.7427 15.2189 29.8262 15.4765C29.9097 15.7349 30.0894 15.9428 30.367 16.0994C30.6445 16.2559 31.0512 16.362 31.5869 16.4176C32.1226 16.4731 32.8532 16.5009 33.7778 16.5009C34.7025 16.5009 35.4044 16.4731 35.9409 16.4176H35.9401ZM62.7022 7.50781C63.6817 7.50781 64.4814 7.57683 65.1007 7.71572C65.7199 7.85376 66.205 8.11723 66.5568 8.50442C66.9078 8.89162 67.1533 9.44127 67.2916 10.1509C67.43 10.8613 67.5 11.7973 67.5 12.9597C67.5 14.1222 67.4308 15.0304 67.2916 15.74C67.1533 16.4504 66.9078 16.9992 66.5568 17.3864C66.2058 17.7736 65.7199 18.032 65.1007 18.1616C64.4814 18.2913 63.6817 18.3552 62.7022 18.3552H54.9373V11.299H57.1282V16.3898H62.9241C63.3678 16.3898 63.7373 16.362 64.0335 16.3064C64.3296 16.2509 64.565 16.1086 64.7404 15.878C64.9159 15.6474 65.0408 15.3065 65.115 14.8545C65.1884 14.4024 65.2255 13.7804 65.2255 12.9867C65.2255 12.1929 65.1884 11.5894 65.115 11.1188C65.0408 10.6483 64.9159 10.2931 64.7404 10.0532C64.565 9.81332 64.3287 9.65676 64.0335 9.58268C63.7373 9.50945 63.3678 9.47242 62.9241 9.47242H54.9373V7.50781H62.7022ZM84 7.50781V18.3544H81.7534V7.50781H84Z" fill="white"/>
</svg>
