<svg xmlns="http://www.w3.org/2000/svg" id="Layer_1" x="0px" y="0px" viewBox="0 0 64 64" ><style type="text/css" id="style2"> .st0{fill:#243743;stroke:#243743;stroke-width:6.0216;stroke-linecap:round;stroke-linejoin:round;stroke-miterlimit:10;} .st1{fill:#19B68B;stroke:#19B68B;stroke-width:1.7503;stroke-miterlimit:10;} </style><g id="g205" transform="matrix(1.5411181,0,0,1.5411181,-59.580085,-2.5318618)"><path style="fill:#19b68b;stroke:#19b68b;stroke-width:0.18151309;stroke-miterlimit:10" id="path16" d="M 40.897727,23.387023 C 44.496255,16.770709 51.3822,10.54847 59.616296,10.54847 c 8.140762,0 14.985225,6.097794 18.614864,12.641515 l -0.746668,0.228149 C 73.958556,17.133673 67.394094,11.31588 59.616296,11.31588 c -7.881503,0 -14.518557,5.99409 -18.013382,12.371884 z" class="st1" /><path style="fill:#19b68b;stroke:#19b68b;stroke-width:0.18151309;stroke-miterlimit:10" id="path18" d="m 41.011802,23.293689 c 2.478525,-4.43853 6.958537,-8.482985 12.268181,-8.482985 5.288903,0 9.758544,4.023714 12.24744,8.451874 l -0.694817,0.331853 c -2.374821,-4.210382 -6.585203,-8.005948 -11.552623,-8.005948 -4.967421,0 -9.188173,3.805937 -11.552624,8.016318 z" class="st1" /><path style="fill:#19b68b;stroke:#19b68b;stroke-width:0.18151309;stroke-miterlimit:10" id="path20" d="m 54.223689,26.135178 c 2.478525,4.511123 6.979278,7.362983 11.780772,7.362983 4.708161,0 9.12595,-2.737785 11.635586,-7.103723 l 0.840003,0.07259 c -2.60297,4.780753 -7.373353,7.798539 -12.475589,7.798539 -5.122977,0 -9.90373,-3.048897 -12.5067,-7.871132 z" class="st1" /><path class="st1" d="m 78.137827,23.687764 c 0.653335,0 1.192595,0.539261 1.192595,1.192596 0,0.663706 -0.53926,1.192596 -1.192595,1.192596 -0.653335,0 -1.192596,-0.539261 -1.192596,-1.192596 0,-0.653335 0.52889,-1.192596 1.192596,-1.192596 m 0,-0.757039 c -1.078522,0 -1.960006,0.881484 -1.960006,1.960005 0,1.078522 0.881484,1.960006 1.960006,1.960006 1.078521,0 1.960005,-0.881484 1.960005,-1.960006 0,-1.088891 -0.881484,-1.960005 -1.960005,-1.960005 z" id="path22" style="fill:#19b68b;stroke:#19b68b;stroke-width:0.18151309;stroke-miterlimit:10" /><path class="st1" d="m 65.72446,23.687764 c 0.653335,0 1.192596,0.539261 1.192596,1.192596 0,0.663706 -0.539261,1.192596 -1.192596,1.192596 -0.653335,0 -1.192596,-0.539261 -1.192596,-1.192596 0,-0.653335 0.539261,-1.192596 1.192596,-1.192596 m 0,-0.757039 c -1.078521,0 -1.960005,0.881484 -1.960005,1.960005 0,1.078522 0.881484,1.960006 1.960005,1.960006 1.078522,0 1.960005,-0.881484 1.960005,-1.960006 0,-1.088891 -0.881483,-1.960005 -1.960005,-1.960005 z" id="path26" style="fill:#19b68b;stroke:#19b68b;stroke-width:0.18151309;stroke-miterlimit:10" /><path class="st1" d="m 53.321464,23.687764 c 0.653335,0 1.192596,0.539261 1.192596,1.192596 0,0.663706 -0.539261,1.192596 -1.192596,1.192596 -0.653335,0 -1.192596,-0.539261 -1.192596,-1.192596 0,-0.653335 0.528891,-1.192596 1.192596,-1.192596 m 0,-0.757039 c -1.078521,0 -1.960005,0.881484 -1.960005,1.960005 0,1.078522 0.881484,1.960006 1.960005,1.960006 1.078522,0 1.960005,-0.881484 1.960005,-1.960006 0,-1.088891 -0.881483,-1.960005 -1.960005,-1.960005 z" id="path30" style="fill:#19b68b;stroke:#19b68b;stroke-width:0.18151309;stroke-miterlimit:10" /><path class="st1" d="m 40.71106,23.687764 c 0.653335,0 1.192596,0.539261 1.192596,1.192596 0,0.663706 -0.539261,1.192596 -1.192596,1.192596 -0.653335,0 -1.192596,-0.539261 -1.192596,-1.192596 0,-0.653335 0.539261,-1.192596 1.192596,-1.192596 m 0,-0.757039 c -1.078521,0 -1.960005,0.881484 -1.960005,1.960005 0,1.078522 0.881484,1.960006 1.960005,1.960006 1.078522,0 1.960005,-0.881484 1.960005,-1.960006 0,-1.088891 -0.881483,-1.960005 -1.960005,-1.960005 z" id="path34" style="fill:#19b68b;stroke:#19b68b;stroke-width:0.18151309;stroke-miterlimit:10" /></g></svg>