<?xml version="1.0" encoding="UTF-8"?><svg id="STERN" xmlns="http://www.w3.org/2000/svg" viewBox="0 0 38 38"><path d="M35.4544448853,9.4999992251c-1.6675834656-2.8883451657-4.0661201477-5.2869449782-6.9544715881-6.9545278296-2.8883495331-1.667570096-6.164855957-2.5454713956-9.5000133514-2.5454713956-3.3351564407,0-6.6116638184.8779012995-9.5000133514,2.5454713956-2.8883495331,1.6675823746-5.2868862152,4.0661826639-6.9544577599,6.9545278296C.8779035807,12.3883443908,0,15.6648468141,0,18.9999982119c0,3.3351504441.8779035807,6.611653821,2.545488596,9.4999989867,1.6675717831,2.8883451657,4.0661084652,5.2869468855,6.9544579983,6.9545163855,2.8883495331,1.6675809441,6.1648569107,2.5454864159,9.5000133514,2.5454864159,3.3351573944,0,6.6116638184-.8779016572,9.5000133514-2.5454864159,2.8883495331-1.6675695,5.2868843079-4.0661693125,6.9544715881-6.9545144781,1.6676368713-2.8883451657,2.5455551147-6.1648466353,2.5455551147-9.4999989867s-.8779830933-6.611653821-2.5455551147-9.5000008941ZM1.89995718,18.9999982119c0-3.0017158896.7901239395-5.9505468037,2.2909841537-8.5499615133,1.5007929802-2.5995491775,3.6594910622-4.7581901128,6.2590441704-6.2591019402,2.4448127747-1.4115097637,5.1986503601-2.1943800647,8.0147438049-2.2824813185l-2.1816215515,15.5229359989L3.9306185246,27.0822003464c-1.3317220211-2.4829083093-2.0306613445-5.2591816534-2.0306613445-8.0822021346ZM27.5500011444,33.8090616654c-2.5995540619,1.5007911877-5.5483875275,2.2908595732-8.5500411987,2.2908595732s-5.9504747391-.7900683854-8.5499744415-2.2908595732c-2.4448127747-1.4115083332-4.499630928-3.4050622951-5.9840559959-5.7997348827l14.5340304375-5.8721243759,14.5341129303,5.8721243759c-1.4844398499,2.3946725876-3.5392551422,4.3882227348-5.9840717316,5.7997348827ZM34.0693817139,27.0822003464l-12.3525695801-9.6508109077-2.1816082001-15.5229352836c2.8161468506.0881012538,5.569984436.8709715548,8.0147972107,2.282481557,2.5994853973,1.5009113505,4.7581958771,3.6595527627,6.2589893341,6.2591019402,1.5008621216,2.5994156633,2.2909851074,5.5483800916,2.2909851074,8.5499605597,0,2.8230204811-.6989517212,5.5992938253-2.0305938721,8.0822021346Z" style="fill:#fff;"/></svg>