<svg xmlns="http://www.w3.org/2000/svg" id="Layer_1" x="0px" y="0px" viewBox="0 0 64 63.999998" enable-background="new 0 0 130.3 40.9" ><g id="g907" transform="matrix(1.6202839,0,0,1.6202839,-128.23543,-16.608516)"><g transform="matrix(1.6116232,0,0,1.6116232,-34.784212,-22.542159)" id="g866"><path d="m 81.785635,25.49939 c -0.07032,0.210969 -0.351615,0.351615 -0.562584,0.281292 l -3.375503,-1.195491 c -0.210969,-0.07032 -0.351615,-0.351615 -0.281292,-0.562584 l 1.195491,-3.375503 c 0.07032,-0.210969 0.351614,-0.351615 0.562583,-0.281292 l 3.375504,1.19549 c 0.210969,0.07032 0.351615,0.351615 0.281292,0.562584 l -1.195491,3.375504" id="path4" style="fill:#b2d0e1;stroke-width:0.7032299" /><path d="m 88.044381,31.406521 c -0.07032,0.210969 -0.351615,0.351615 -0.562584,0.281292 l -3.375503,-1.195491 c -0.210969,-0.07032 -0.351615,-0.351615 -0.281292,-0.562584 l 1.19549,-3.375503 c 0.07032,-0.210969 0.351615,-0.351615 0.562584,-0.281292 l 3.375504,1.19549 c 0.210969,0.07032 0.351615,0.351615 0.281292,0.562584 l -1.195491,3.375504" id="path6" style="fill:#72aac9;stroke-width:0.7032299" /><path d="m 81.293374,34.571055 c -0.07032,0.210969 -0.351615,0.351615 -0.562584,0.281292 l -3.375503,-1.195491 c -0.210969,-0.07032 -0.351615,-0.351615 -0.281292,-0.562583 l 1.195491,-3.375504 c 0.07032,-0.210969 0.351615,-0.351615 0.562584,-0.281292 l 3.375503,1.195491 c 0.210969,0.07032 0.351615,0.351615 0.281292,0.562584 l -1.195491,3.375503" id="path8" style="fill:#72aac9;stroke-width:0.7032299" /><path d="m 87.55212,39.63431 c -0.07032,0.210969 -0.351615,0.351615 -0.562584,0.281292 l -3.375503,-1.19549 c -0.210969,-0.07032 -0.351615,-0.351615 -0.281292,-0.562584 l 1.195491,-3.375504 c 0.07032,-0.210969 0.351615,-0.351615 0.562583,-0.281292 l 3.375504,1.195491 c 0.210969,0.07032 0.351615,0.351615 0.281292,0.562584 L 87.55212,39.63431" id="path10" style="fill:#3383b1;stroke-width:0.7032299" /><path d="m 85.864368,44.55692 c -0.07032,0.210969 -0.351615,0.351614 -0.562584,0.281292 l -3.375503,-1.195491 c -0.210969,-0.07032 -0.351615,-0.351615 -0.281292,-0.562584 l 1.195491,-3.375504 c 0.07032,-0.210969 0.351615,-0.351615 0.562584,-0.281292 l 3.375503,1.195491 c 0.210969,0.07032 0.351615,0.351615 0.281292,0.562584 l -1.195491,3.375504" id="path12" style="fill:#00649e;stroke-width:0.7032299" /><path d="m 80.871436,42.798845 c -0.07032,0.210969 -0.351615,0.351615 -0.562584,0.281292 l -3.375503,-1.195491 c -0.210969,-0.07032 -0.351615,-0.351615 -0.281292,-0.562584 l 1.195491,-3.375503 c 0.07032,-0.210969 0.351615,-0.351615 0.562584,-0.281292 l 3.375503,1.195491 c 0.210969,0.07032 0.351615,0.351614 0.281292,0.562583 l -1.195491,3.375504" id="path14" style="fill:#3383b1;stroke-width:0.7032299" /></g></g></svg>