<svg xmlns="http://www.w3.org/2000/svg" id="Layer_1" x="0px" y="0px" viewBox="0 0 64 64" ><style type="text/css" id="style2"> .st0{fill:#472D59;} .st1{fill:#70468C;} .st2{fill:#FFFFFF;} </style><g id="g872" transform="matrix(3.0953177,0,0,3.0953177,-42.004487,-60.859533)"><path class="st0" d="m 15.381519,22.787306 v 7.372977 c 0,7.901907 8.527008,10.177913 8.527008,10.177913 0,0 8.527008,-2.276006 8.527008,-10.177913 v -7.372977 c 0,0 -4.648181,-0.44879 -8.527008,-3.125501 -3.878827,2.676711 -8.527008,3.125501 -8.527008,3.125501" id="path6" style="fill:#472d59;stroke-width:0.16028211" /><path class="st1" d="m 23.87647,20.68761 c -2.965218,1.891329 -6.202917,2.59657 -7.661484,2.836994 v 6.61965 c 0,2.965219 1.298285,5.433564 3.862799,7.324892 1.154031,0.849495 2.436288,1.506652 3.798685,1.955442" id="path32" style="fill:#70468c;stroke-width:0.16028211" /><path class="st2" d="m 27.146225,31.923386 -0.432761,2.131752 H 23.87647 v -0.06411 0 -8.222472 0 l 1.234173,-0.144254 v -0.769354 h -4.856548 v 0.769354 l 1.234172,0.144254 v 0 8.222472 0 l -1.234172,0.144254 v 0.753325 h 7.949992 l 0.160282,-2.965218 z m -4.728322,2.083667 h -0.384677 v -8.270556 h 0.384677 z m 0.913608,0 h -0.384677 v -8.270556 h 0.384677 z" id="path34" style="fill:#ffffff;stroke-width:0.16028211" /></g></svg>