<svg width="158" height="40" viewBox="0 0 158 40" fill="none" xmlns="http://www.w3.org/2000/svg">
<path d="M128.852 35.2117L135.119 28.6562C136.038 29.775 137.203 30.6797 138.531 31.3033C139.858 31.9269 141.314 32.2536 142.789 32.2592C145.665 32.2592 148.886 30.9715 148.886 28.2807C148.886 21.2939 130.151 25.0568 130.151 12.3699C130.151 4.25281 137.546 0.0125893 145.387 0.0125893C149.831 -0.149802 154.184 1.26341 157.631 3.98755L151.598 10.2728C150.771 9.45039 149.778 8.80177 148.681 8.36759C147.584 7.93341 146.406 7.72298 145.222 7.74926C142.744 7.74926 139.292 8.82265 139.292 11.6745C139.292 18.6068 157.692 14.1435 157.692 27.4713C157.692 35.9664 150.532 39.9912 142.284 39.9912C137.338 40.139 132.525 38.4262 128.852 35.2117ZM92.3547 22.5018C93.6049 28.1317 98.6155 31.6632 105.17 31.6632C111.555 31.6632 116.465 28.3061 117.876 22.9403C117.303 33.1061 113.964 39.9245 105.234 39.9245C96.2243 39.9221 92.8135 33.1619 92.3547 22.5018ZM84.0675 20.0242C84.0675 10.4533 89.5309 2.98564 98.5433 0.479032C91.4373 3.45571 87.4932 11.1063 87.4932 20.9389C87.4932 29.9816 91.7548 36.7879 98.4706 39.5465C89.4995 37.0241 84.0675 29.577 84.0675 20.0242ZM122.85 19.2598C122.85 10.2837 118.923 3.58777 112.598 0.699535C121.177 3.39877 126.35 10.7163 126.35 20.0267C126.35 29.4438 121.054 36.8206 112.301 39.4435C119.233 36.3808 122.85 28.7762 122.85 19.2598ZM51.8867 39.1915V1.01572H79.1181V8.85784H60.6879V15.9451H78.0132V23.6806H60.6879V31.4173H80.0447V39.1915H51.8867ZM41.3128 39.183L20.0539 2.3834V38.1497H24.8446V39.183H15.7308V38.1497H18.6853V2.10847H15.7308V1.01809H23.4223L41.7884 32.1248V2.11084H36.8103V1.02045H45.0413V2.11084H43.146V39.183H41.3128ZM0 39.183V38.1497H3.02286V2.10847H0V1.01809H10.0379V2.10847H6.98579V38.1497H10.0379V39.183H0ZM105.232 0.105907C114.198 0.105907 117.408 6.79329 117.895 17.1989C116.513 11.7787 111.589 8.39007 105.166 8.39007C98.6344 8.39007 93.6526 11.8901 92.37 17.4764C92.9063 7.11798 96.3556 0.105907 105.232 0.105907Z" fill="white"/>
</svg>
