<svg xmlns="http://www.w3.org/2000/svg"
     xmlns:xlink="http://www.w3.org/1999/xlink"
     fill="none"
     version="1.1"
     width="148"
     height="20"
     viewBox="0 0 148 20">
  <g>
    <g>
      <path d="M4.075697294197083,1.25C4.288877294197082,1.25,4.499227294197082,1.2916247,4.695287294197083,1.372151L4.839477294197083,1.439796L17.849737294197084,8.33579C17.94393729419708,8.3859,18.009937294197083,8.4739,18.032537294197084,8.57524L18.041137294197082,8.65336L18.041137294197082,11.3467C18.041137294197082,11.4531,17.99403729419708,11.5526,17.91483729419708,11.6201L17.849737294197084,11.6642L4.839477294197083,18.5602C4.6512672941970825,18.66,4.445917294197082,18.7216,4.234877294197083,18.7422L4.075697294197083,18.75L1.6546692941970824,18.75C1.3381347941970825,18.75,1.1573529941970826,18.4079,1.3083683941970825,18.1526L1.3531480941970826,18.0908L7.660317294197083,10.86126C7.775207294197083,10.72928,7.930667294197082,10.64127,8.100507294197083,10.6091L8.203937294197083,10.59659L15.197437294197082,10.23306L15.197437294197082,9.76694L8.203937294197083,9.40331C8.029377294197083,9.39445,7.863977294197083,9.32654,7.733907294197082,9.21285L7.660317294197083,9.139240000000001L1.3531480941970826,1.909218C1.1454722941970825,1.6712989999999999,1.2859296941970826,1.3109146,1.5784772941970826,1.25687858L1.6546692941970824,1.25L4.075697294197083,1.25ZM34.955537294197086,1.25C35.297937294197084,1.25,35.481637294197085,1.651473,35.25703729419708,1.909218L28.95003729419708,9.139240000000001C28.812137294197083,9.29702,28.61583729419708,9.39267,28.406337294197083,9.40331L21.412837294197082,9.76694L21.412837294197082,10.23306L28.406337294197083,10.59659C28.61583729419708,10.60783,28.812137294197083,10.70288,28.95003729419708,10.86126L35.25703729419708,18.0908C35.481637294197085,18.3485,35.297937294197084,18.75,34.955537294197086,18.75L32.53463729419708,18.75C32.26813729419708,18.75,32.00613729419708,18.685,31.770837294197083,18.5602L18.760637294197082,11.6642C18.642737294197083,11.602,18.569137294197084,11.4797,18.569137294197084,11.3467L18.569137294197084,8.65336C18.569137294197084,8.52027,18.642737294197083,8.39842,18.760637294197082,8.33579L31.770837294197083,1.439796C32.00613729419708,1.3150386,32.26813729419708,1.25,32.53463729419708,1.25L34.955537294197086,1.25ZM104.72023729419708,7.25189L104.72023729419708,5.53027L89.39143729419709,5.53027L89.39143729419709,7.25189L104.72023729419708,7.25189ZM124.07323729419709,12.8917L124.07323729419709,14.7806L123.81923729419708,14.7806L112.47923729419708,7.42052L112.47923729419708,14.7806L110.71523729419708,14.7806L110.71523729419708,5.53027L112.78723729419708,5.53028L124.07323729419709,12.8917ZM124.07323729419709,12.8917L124.07323729419709,5.53027L125.83723729419708,5.53027L125.83723729419708,14.7806L124.07323729419709,14.7806L124.07323729419709,12.8918L124.07323729419709,12.8917ZM147.2312372941971,7.25189L147.2312372941971,5.53027L136.22223729419707,5.53027L136.01623729419708,5.53478C133.54923729419707,5.64256,131.58223729419709,7.67011,131.58223729419709,10.15544C131.58223729419709,12.7098,133.65923729419708,14.7806,136.22223729419707,14.7806L147.2312372941971,14.7806L147.2312372941971,9.29466L137.43823729419708,9.29466L137.43823729419708,11.01618L145.4652372941971,11.01578L145.4652372941971,13.0584L136.22223729419707,13.0591L136.05123729419708,13.0542C134.52223729419708,12.9659,133.3092372941971,11.7018,133.3092372941971,10.15544C133.3092372941971,8.55176,134.6132372941971,7.25179,136.22223729419707,7.25179L147.2312372941971,7.25189ZM49.18913729419708,5.54517L53.98583729419708,8.98487L58.78413729419708,5.54517L61.77223729419708,5.54517L55.48063729419708,10.05564L62.12233729419708,14.8188L59.134237294197085,14.8188L53.98583729419708,11.12737L48.839037294197084,14.8188L45.85093729419708,14.8188L52.49203729419708,10.05564L46.201037294197086,5.54517L49.18913729419708,5.54517ZM83.39963729419708,8.29252C83.39963729419708,6.7876,82.17553729419708,5.56763,80.66543729419708,5.56763L68.08533729419709,5.56763L68.08533729419709,7.29045L80.61153729419708,7.29045L80.72103729419709,7.29633C81.22493729419708,7.35073,81.61693729419709,7.77599,81.61693729419709,8.29252C81.61693729419709,8.84595,81.16693729419708,9.2947,80.61153729419708,9.2947L68.08533729419709,9.2947L68.08533729419709,14.7806L69.84993729419708,14.7806L69.84993729419708,11.01591L80.66543729419708,11.01742L80.83203729419708,11.01245C82.26453729419708,10.92666,83.39963729419708,9.74171,83.39963729419708,8.29252ZM104.72023729419708,9.29468L104.72023729419708,11.01619L91.15563729419708,11.0158L91.15563729419708,13.0584L104.72023729419708,13.059L104.72023729419708,14.7806L89.39143729419709,14.7806L89.39143729419709,9.29468L104.72023729419708,9.29468Z"
            fill-rule="evenodd"
            fill="#FFFFFF"
            fill-opacity="1" />
    </g>
  </g>
</svg>