<svg xmlns="http://www.w3.org/2000/svg" x="0px" y="0px" viewBox="0 0 64 63.999999" id="svg24" ><g id="original" transform="translate(0,-70.300003)"></g><g id="g50" transform="matrix(2.3057143,0,0,2.3057143,-10.580953,-37.219048)"><path id="path17" d="m 18.839322,16.14209 h -3.201156 v 0 H 9.9999997 v 3.820735 h 5.6381663 v 4.151177 H 9.9999997 v 3.820736 h 5.6381663 v 4.151177 H 9.9999997 v 3.820735 h 5.6381663 v 4.151177 H 9.9999997 v 3.841388 h 5.6381663 3.201156 c 7.538208,-0.06196 8.095829,-3.035935 8.095829,-13.878562 0,-10.86328 -0.557621,-13.837258 -8.095829,-13.878563 m 0.867411,23.667906 V 20.210657 c 2.870714,0 3.056588,0.722842 3.015282,9.76869 0.04131,9.107807 -0.144568,9.830649 -3.015282,9.830649" style="fill:#f07e3b;stroke-width:0.20652623" /></g><g id="league_gothic" transform="translate(0,-70.300003)"></g><g id="guides" transform="translate(0,-70.300003)"></g></svg>