<svg width="137" height="112" viewBox="0 0 137 112" fill="none" xmlns="http://www.w3.org/2000/svg">
<g clip-path="url(#clip0_5328_8604)">
<path d="M3.27051 98.9399C3.27051 100.419 4.31046 101.688 5.7647 101.975C13.78 103.548 40.0155 108.231 68.5085 108.231C97.0015 108.231 123.22 103.548 131.235 101.975C132.69 101.688 133.73 100.419 133.73 98.9399V12.1298C133.73 10.6503 132.69 9.38211 131.244 9.09466C123.271 7.51368 97.2129 2.83838 68.5085 2.83838C39.8041 2.83838 13.8053 7.53059 5.7647 9.09466C4.31046 9.38211 3.27051 10.6503 3.27051 12.1298V98.9314V98.9399Z" fill="white"/>
<path d="M68.5083 108.477C39.8208 108.477 13.1963 103.683 5.71372 102.22C4.14956 101.916 3.0166 100.538 3.0166 98.9399V12.1383C3.0166 10.5404 4.14956 9.16235 5.71372 8.85799C13.2301 7.38692 39.9392 2.59326 68.5083 2.59326C97.0774 2.59326 123.871 7.38692 131.286 8.84954C132.842 9.1539 133.975 10.5404 133.975 12.1299V98.9399C133.975 100.529 132.842 101.916 131.277 102.22C123.803 103.691 97.1788 108.477 68.5083 108.477ZM68.5083 3.09207C39.9814 3.09207 13.3147 7.87728 5.81517 9.3399C4.48775 9.60198 3.5239 10.7771 3.5239 12.1299V98.9315C3.5239 100.284 4.48775 101.459 5.81517 101.721C13.2809 103.184 39.8715 107.969 68.5083 107.969C97.145 107.969 123.719 103.184 131.184 101.721C132.512 101.459 133.476 100.284 133.476 98.9315V12.1299C133.476 10.7771 132.512 9.60198 131.184 9.3399C123.778 7.87728 97.3733 3.09207 68.5083 3.09207Z" fill="#BBBDBF"/>
<path d="M16.0713 46.497C16.0713 48.2555 17.4241 49.7012 19.0812 49.7012H80.3201C81.9772 49.7012 83.33 48.2639 83.33 46.497V24.693C83.33 22.9345 81.9772 21.4888 80.3201 21.4888H19.0812C17.4241 21.4888 16.0713 22.926 16.0713 24.693V46.497Z" fill="#BE1E2D"/>
<path d="M86.0605 46.5307C86.0605 48.2723 87.4133 49.6927 89.062 49.6927H117.775C119.424 49.6927 120.776 48.2723 120.776 46.5307V24.7352C120.776 22.9936 119.424 21.5732 117.775 21.5732H89.062C87.4133 21.5732 86.0605 23.002 86.0605 24.7352V46.5307Z" fill="#3E3935"/>
<path d="M15.9023 77.6096C15.9023 79.3428 17.2298 80.7546 18.8616 80.7546H118.139C119.762 80.7546 121.098 79.3428 121.098 77.6096V55.8902C121.098 54.157 119.771 52.7451 118.139 52.7451H18.8616C17.2382 52.7451 15.9023 54.157 15.9023 55.8902V77.6096Z" fill="white" stroke="#3E3935" stroke-width="0.31" stroke-miterlimit="10"/>
<path d="M25.7771 32.3869C25.7771 32.3869 25.8532 32.3869 25.887 32.3869C25.9209 32.3869 25.9462 32.3869 25.9716 32.4038C25.997 32.4038 26.0139 32.4207 26.0308 32.4376C26.0477 32.4545 26.0477 32.4714 26.0477 32.4968C26.0477 32.5813 26.0477 32.6659 26.0477 32.7589C26.0477 32.8434 26.0477 32.9364 26.0477 33.0379C26.0477 33.1393 26.0477 33.2408 26.0477 33.3591C26.0477 33.4775 26.0477 33.6128 26.0561 33.7565C26.0561 33.8072 26.0731 33.8918 26.1069 33.9848C26.1407 34.0862 26.183 34.1961 26.2506 34.306C26.3182 34.4159 26.4113 34.5174 26.5296 34.5935C26.648 34.6696 26.7917 34.7203 26.9693 34.7287C27.0623 34.7287 27.1806 34.7287 27.3159 34.7287C27.4512 34.7287 27.6118 34.7287 27.7809 34.7287C27.95 34.7287 28.1361 34.7287 28.3221 34.7287C28.5081 34.7287 28.7025 34.7287 28.897 34.7287C29.0915 34.7287 29.2775 34.7287 29.455 34.7287C29.6326 34.7287 29.8017 34.7287 29.9454 34.7287C30.0976 34.7287 30.2244 34.7287 30.3259 34.7203C30.4273 34.7203 30.5119 34.7118 30.5542 34.7034C30.6472 34.6865 30.7317 34.6696 30.8163 34.6358C30.9008 34.6019 30.9769 34.5597 31.0361 34.5005C31.1037 34.4413 31.1545 34.3652 31.1967 34.2638C31.239 34.1623 31.2644 34.0524 31.2728 33.9087C31.2728 33.841 31.2728 33.7396 31.2728 33.6212C31.2728 33.5029 31.2728 33.3676 31.2728 33.2239C31.2728 33.0886 31.2728 32.9533 31.2644 32.8434C31.2644 32.7335 31.2644 32.6405 31.2644 32.5898C31.2644 32.556 31.2644 32.5221 31.2728 32.4968C31.2728 32.4714 31.2897 32.4545 31.3066 32.4376C31.3236 32.4207 31.3489 32.4122 31.3827 32.4038C31.4166 32.4038 31.4588 32.3953 31.5096 32.3953H35.0437C35.0944 32.3953 35.1283 32.3953 35.1621 32.3953C35.1959 32.3953 35.2128 32.4122 35.2297 32.4207C35.2466 32.4376 35.2551 32.4545 35.2635 32.4714C35.2635 32.4883 35.272 32.5137 35.272 32.5475C35.272 32.6151 35.272 33.0886 35.2804 33.7649C35.2804 34.4328 35.2804 35.3037 35.2804 36.1745C35.2804 37.0453 35.2804 37.9076 35.2804 38.5671C35.2804 39.235 35.2804 39.6915 35.272 39.7507C35.272 39.793 35.272 39.8352 35.2635 39.869C35.2635 39.9029 35.2466 39.9282 35.2382 39.9451C35.2213 39.962 35.2043 39.9789 35.179 39.9874C35.1536 39.9959 35.1283 40.0043 35.086 40.0043H33.3105C32.8877 40.0043 32.465 40.0043 32.1268 40.0043C31.7886 40.0043 31.5265 40.0043 31.4335 40.0043H31.3996C31.3996 40.0043 31.332 40.0043 31.3066 40.0043C31.2813 40.0043 31.2728 39.9874 31.2559 39.979C31.2475 39.962 31.239 39.9451 31.239 39.9282C31.239 39.9029 31.239 39.8775 31.239 39.8437C31.239 39.8014 31.239 39.7169 31.239 39.6154C31.239 39.514 31.239 39.3956 31.239 39.2772C31.239 39.1589 31.239 39.0321 31.239 38.9221C31.239 38.8122 31.239 38.7192 31.239 38.6516C31.239 38.584 31.239 38.4825 31.2136 38.3642C31.1967 38.2373 31.1629 38.1021 31.1037 37.9752C31.0445 37.8484 30.9684 37.7216 30.8585 37.6286C30.7486 37.5356 30.6133 37.4764 30.4442 37.468C30.3512 37.468 30.2244 37.468 30.0807 37.4595C29.9285 37.4595 29.7594 37.4595 29.5734 37.4595C29.3874 37.4595 29.1845 37.4595 28.9815 37.4595C28.7786 37.4595 28.5673 37.4595 28.3728 37.4595C28.2037 37.4595 28.0346 37.4595 27.8739 37.4595C27.7133 37.4595 27.5696 37.4595 27.4343 37.4595C27.299 37.4595 27.1891 37.4595 27.0961 37.4595C27.0031 37.4595 26.927 37.4595 26.8847 37.4764C26.7917 37.4933 26.6903 37.5103 26.5973 37.5525C26.5043 37.5863 26.4113 37.6371 26.3352 37.7132C26.2591 37.7893 26.1914 37.8823 26.1492 38.0006C26.1069 38.1274 26.0731 38.2796 26.0731 38.4572C26.0731 38.5332 26.0731 38.6516 26.0731 38.7784C26.0731 38.9052 26.0731 39.0574 26.0731 39.2011C26.0731 39.3449 26.0731 39.4801 26.0731 39.59C26.0731 39.7 26.0731 39.793 26.0731 39.8352C26.0731 39.869 26.0731 39.8944 26.0646 39.9198C26.0646 39.9451 26.0477 39.962 26.0308 39.9705C26.0139 39.9874 25.997 39.9959 25.9716 39.9959C25.9462 39.9959 25.9209 40.0043 25.8786 40.0043C25.8448 40.0043 25.6334 40.0043 25.3375 40.0043C25.0416 40.0043 24.6526 40.0043 24.2637 40.0043C23.8748 40.0043 23.4859 40.0043 23.173 40.0043C22.8602 40.0043 22.6404 40.0043 22.5896 40.0043C22.5558 40.0043 22.5305 40.0043 22.5051 40.0043C22.4797 40.0043 22.4628 39.9874 22.4459 39.962C22.429 39.9367 22.4121 39.9113 22.4036 39.869C22.3952 39.8268 22.3867 39.7676 22.3867 39.7C22.3867 39.6154 22.3867 39.1673 22.3867 38.5248C22.3867 37.8823 22.3867 37.0537 22.3952 36.2083C22.3952 35.3713 22.3952 34.5258 22.4036 33.8495C22.4036 33.1816 22.4036 32.6828 22.4036 32.5391C22.4036 32.5052 22.4036 32.4714 22.4121 32.4545C22.4121 32.4291 22.4374 32.4122 22.4628 32.4038C22.4882 32.3953 22.522 32.3869 22.5727 32.3784C22.6235 32.3784 22.6911 32.3784 22.7841 32.3784H25.7856L25.7771 32.3869Z" fill="white"/>
<path d="M42.5947 32.4038C42.6369 32.4038 42.6792 32.4038 42.7046 32.4207C42.7299 32.4292 42.7553 32.4461 42.7638 32.463C42.7807 32.4799 42.7891 32.5053 42.7891 32.5391C42.7891 32.5644 42.7976 32.6067 42.7976 32.6405C42.7976 32.7166 42.806 33.1816 42.806 33.8411C42.806 34.509 42.806 35.3713 42.806 36.2337C42.806 37.096 42.806 37.9584 42.806 38.6263C42.806 39.2942 42.806 39.7592 42.806 39.8353C42.806 39.8691 42.806 39.9029 42.806 39.9283C42.806 39.9536 42.7976 39.9705 42.7807 39.9874C42.7722 40.0043 42.7553 40.0128 42.7299 40.0213C42.7046 40.0213 42.6792 40.0297 42.6454 40.0297H38.9168C38.9168 40.0297 38.8491 40.0297 38.8238 40.0297C38.7984 40.0297 38.7815 40.0297 38.7646 40.0128C38.7477 40.0043 38.7392 39.9874 38.7308 39.9621C38.7308 39.9367 38.7223 39.9113 38.7139 39.8691C38.7139 39.8268 38.7139 39.3787 38.7139 38.7277C38.7139 38.0767 38.7139 37.2144 38.7139 36.3436C38.7139 35.4728 38.7139 34.602 38.7139 33.9256C38.7139 33.2493 38.7139 32.7674 38.7139 32.6744C38.7139 32.6321 38.7139 32.5898 38.7139 32.556C38.7139 32.5222 38.7139 32.4968 38.7308 32.4714C38.7477 32.4461 38.7646 32.4292 38.7984 32.4207C38.8322 32.4123 38.883 32.4038 38.9506 32.4038H42.5862H42.5947Z" fill="white"/>
<path d="M76.7436 34.8721C76.752 34.9398 76.7689 35.1258 76.7774 35.3794C76.7859 35.633 76.7943 35.9459 76.7858 36.284C76.7858 36.6138 76.7859 36.9604 76.7605 37.2647C76.7436 37.5691 76.7182 37.8312 76.6844 38.0087C76.5829 38.5076 76.4477 38.8965 76.2786 39.2008C76.1095 39.5052 75.8981 39.7334 75.6529 39.911C75.4077 40.0801 75.1202 40.2069 74.7905 40.2914C74.4608 40.3844 74.0887 40.4436 73.6744 40.5112C73.48 40.5451 73.2263 40.5704 72.9389 40.5873C72.6514 40.6127 72.3217 40.6296 71.975 40.6381C71.6284 40.655 71.2479 40.6634 70.8674 40.6719C70.4869 40.6719 70.098 40.6803 69.7176 40.6803C69.4132 40.6803 69.1173 40.6803 68.8382 40.6803C68.5508 40.6803 68.2802 40.6719 68.035 40.6634C67.7898 40.6634 67.5531 40.6465 67.3586 40.6296C67.1557 40.6127 66.9866 40.6042 66.8513 40.5873C66.0989 40.4943 65.4901 40.3929 64.9913 40.2576C64.4924 40.1223 64.112 39.9533 63.816 39.7334C63.5201 39.5136 63.3172 39.2431 63.165 38.888C63.0128 38.5414 62.9283 38.1102 62.8691 37.5945C62.8437 37.3493 62.8268 37.0788 62.8184 36.7998C62.8184 36.5208 62.8184 36.2333 62.8184 35.9543C62.8268 35.6753 62.8437 35.4132 62.8606 35.1765C62.8775 34.9398 62.9029 34.7284 62.9283 34.5678C63.0128 34.0267 63.2157 33.604 63.4947 33.2658C63.7738 32.9361 64.1289 32.6994 64.5262 32.5218C64.9236 32.3527 65.3548 32.2428 65.786 32.1752C66.2172 32.1076 66.6484 32.0822 67.0458 32.0737C67.1219 32.0737 67.2234 32.0737 67.3417 32.0737C67.4601 32.0737 67.5954 32.0737 67.7476 32.0737C67.8998 32.0737 68.0604 32.0737 68.2379 32.0737C68.4155 32.0737 68.6015 32.0737 68.796 32.0737C69.2525 32.0737 69.7598 32.0737 70.2671 32.0737C70.7744 32.0737 71.2902 32.0822 71.7636 32.0906C72.2371 32.0991 72.6768 32.116 73.0403 32.1245C73.4039 32.1414 73.6829 32.1583 73.8435 32.1836C74.2832 32.2428 74.6637 32.3358 74.9934 32.4626C75.3232 32.5895 75.6022 32.7585 75.8389 32.9699C76.0756 33.1813 76.2616 33.4433 76.4054 33.7562C76.5576 34.069 76.659 34.4325 76.7351 34.8637L76.7436 34.8721ZM70.0219 38.2962C70.8082 38.2962 71.4085 38.2962 71.8736 38.2455C72.3301 38.2032 72.6514 38.1356 72.8712 38.0003C73.0911 37.865 73.2179 37.679 73.2855 37.4C73.3532 37.121 73.3616 36.7575 73.3616 36.284C73.3616 35.819 73.3532 35.4555 73.2855 35.1681C73.2263 34.8806 73.108 34.6692 72.8966 34.5086C72.6852 34.3564 72.3809 34.255 71.9412 34.1958C71.5015 34.1366 70.9266 34.1197 70.1657 34.1197H69.9881C69.2864 34.1197 68.7537 34.1451 68.3479 34.1958C67.942 34.2465 67.6715 34.3395 67.4855 34.4917C67.2995 34.6439 67.198 34.8552 67.1473 35.1596C67.0965 35.4555 67.0881 35.8444 67.0796 36.3432C67.0796 36.8167 67.105 37.1802 67.1811 37.4507C67.2572 37.7213 67.384 37.9073 67.5785 38.0341C67.7729 38.1609 68.035 38.2201 68.3901 38.2539C68.7452 38.2877 69.1849 38.2877 69.726 38.2877H70.005" fill="white"/>
<path d="M58.3799 32.4712C58.5236 32.4712 58.6589 32.4712 58.7857 32.4712C58.9126 32.4712 59.0225 32.4712 59.1239 32.4712C59.2254 32.4712 59.3099 32.4712 59.3691 32.4712C59.4283 32.4712 59.479 32.4712 59.496 32.4796C59.5382 32.4881 59.5805 32.4965 59.6143 32.4965C59.6481 32.4965 59.6735 32.4965 59.6989 32.5134C59.7242 32.5219 59.7411 32.5388 59.7496 32.5642C59.7665 32.5895 59.775 32.6318 59.775 32.6825C59.775 32.7333 59.775 33.1898 59.775 33.8408C59.775 34.4918 59.775 35.3372 59.775 36.1911C59.775 37.045 59.775 37.8905 59.775 38.5499C59.775 39.2009 59.775 39.6574 59.775 39.7166C59.775 39.7758 59.7665 39.8265 59.7581 39.8603C59.7496 39.8942 59.7327 39.928 59.7158 39.9449C59.6989 39.9618 59.6735 39.9787 59.6397 39.9871C59.6059 39.9956 59.572 40.0041 59.5382 40.0041C59.5298 40.0041 59.5129 40.0041 59.4875 40.0041C59.4621 40.0041 59.4368 40.0041 59.4029 40.0041C59.3691 40.0041 59.3269 40.0041 59.2846 40.0041C59.2423 40.0041 59.1916 40.0041 59.1324 40.0041C58.9126 40.0041 58.6251 40.0041 58.3038 40.0041C57.991 40.0041 57.6528 40.0041 57.3315 40.0041C57.0187 40.0041 56.7227 40.0041 56.4945 40.0041C56.2662 40.0041 56.1055 40.0041 56.0633 40.0041C55.9787 40.0041 55.9195 40.0041 55.8773 39.9956C55.835 39.9956 55.8096 39.9702 55.8012 39.9449C55.7842 39.9195 55.7758 39.8688 55.7589 39.8012C55.7504 39.7335 55.7335 39.649 55.7082 39.5306C55.6912 39.4545 55.6659 39.3869 55.6321 39.3277C55.5982 39.2685 55.5644 39.2178 55.5221 39.1671C55.4799 39.1163 55.4291 39.0741 55.37 39.0149C55.3108 38.9642 55.2516 38.905 55.1755 38.8458C54.9388 38.6344 54.6259 38.3977 54.2708 38.161C53.9157 37.9243 53.5352 37.6791 53.1548 37.4508C52.7828 37.2226 52.4192 37.0196 52.1064 36.8506C51.802 36.6815 51.5483 36.5547 51.4046 36.4955C51.3454 36.4701 51.2778 36.4447 51.2186 36.4278C51.1594 36.4109 51.1002 36.3856 51.0411 36.3771C50.9819 36.3602 50.9227 36.3517 50.872 36.3433C50.8212 36.3433 50.762 36.3348 50.7198 36.3348C50.6352 36.3348 50.5507 36.3433 50.483 36.3771C50.4154 36.4025 50.3477 36.4532 50.297 36.5124C50.2463 36.58 50.204 36.6561 50.1787 36.766C50.1533 36.8675 50.1364 37.0027 50.1448 37.1549C50.1448 37.2986 50.1448 37.5269 50.1448 37.7975C50.1448 38.068 50.1448 38.3724 50.1448 38.6683C50.1448 38.9642 50.1448 39.2516 50.1448 39.4714C50.1448 39.6912 50.1448 39.8434 50.1448 39.8857C50.1448 39.9111 50.1448 39.9364 50.1364 39.9533C50.1364 39.9702 50.1195 39.9872 50.1026 39.9956C50.0856 40.0041 50.0603 40.0125 50.0349 40.0125C50.0011 40.0125 49.9673 40.0125 49.925 40.0125C49.8996 40.0125 49.8066 40.0125 49.6629 40.0125C49.5192 40.0125 49.3332 40.0125 49.1133 40.0125C48.902 40.0125 48.6568 40.0125 48.4116 40.0125C48.1664 40.0125 47.9212 40.0125 47.6845 40.0125H47.3547C47.2533 40.0125 47.1518 40.0125 47.0672 40.0125C46.9827 40.0125 46.9066 40.0125 46.839 40.0125C46.7713 40.0125 46.7206 40.0125 46.6868 40.0125C46.5769 40.0125 46.5008 39.9956 46.4416 39.9787C46.3824 39.9618 46.3486 39.9449 46.3317 39.9111C46.3063 39.8772 46.3063 39.835 46.2979 39.7842C46.2979 39.7335 46.2979 39.6659 46.2979 39.5813V38.3977C46.2979 37.7552 46.2979 36.9266 46.2979 36.0981C46.2979 35.278 46.2979 34.4495 46.2979 33.8239C46.2979 33.1898 46.2979 32.7502 46.2979 32.691C46.2979 32.6403 46.2979 32.598 46.3148 32.5726C46.3232 32.5388 46.3401 32.5219 46.3655 32.505C46.3824 32.4881 46.4078 32.4796 46.4416 32.4796C46.4669 32.4796 46.4923 32.4796 46.5261 32.4796C46.5261 32.4796 46.5346 32.4796 46.543 32.4796H46.5938C46.6699 32.4796 46.8221 32.4796 47.0419 32.4796C47.2533 32.4796 47.5154 32.4796 47.8028 32.4796C48.0818 32.4796 48.3862 32.4796 48.6652 32.4796C48.9442 32.4796 49.2063 32.4796 49.4093 32.4796H49.6291C49.6291 32.4796 49.6883 32.4796 49.7136 32.4796C49.739 32.4796 49.7644 32.4796 49.7813 32.4796C49.7813 32.4796 49.7982 32.4796 49.8066 32.4796H49.832C49.832 32.4796 49.8489 32.4796 49.8574 32.4796H49.8827C49.9842 32.4796 50.0687 32.4796 50.1533 32.4965C50.2378 32.505 50.3139 32.5303 50.39 32.5473C50.4661 32.5726 50.5422 32.598 50.6268 32.6318C50.7113 32.6656 50.8043 32.6994 50.9058 32.7333C51.0241 32.7755 51.244 32.877 51.5314 33.0207C51.8189 33.1644 52.174 33.3504 52.5629 33.5533C52.9519 33.7562 53.3661 33.9845 53.772 34.2128C54.1778 34.441 54.5837 34.6693 54.9388 34.8807C54.9726 34.8976 55.0064 34.9145 55.0402 34.9314C55.074 34.9483 55.1163 34.9652 55.1586 34.9737C55.2009 34.9821 55.2431 34.9906 55.2854 34.999C55.3277 34.999 55.37 35.0075 55.4122 35.0075C55.4883 35.0075 55.5644 34.999 55.6321 34.9737C55.7082 34.9483 55.7673 34.9145 55.8265 34.8638C55.8857 34.813 55.9364 34.7454 55.9703 34.6693C56.0041 34.5848 56.0294 34.4833 56.0294 34.365C56.0294 34.2128 56.0379 34.0606 56.0379 33.9C56.0379 33.7393 56.0379 33.5871 56.0379 33.435C56.0379 33.2828 56.0379 33.1391 56.0294 33.0122C56.0294 32.8854 56.0294 32.7755 56.0294 32.6825C56.0294 32.6318 56.0294 32.5895 56.0379 32.5642C56.0379 32.5303 56.0548 32.5134 56.0717 32.4965C56.0886 32.4796 56.114 32.4712 56.1478 32.4627C56.1816 32.4627 56.2324 32.4543 56.2915 32.4458C56.3254 32.4458 56.4268 32.4458 56.5621 32.4458C56.6974 32.4458 56.8834 32.4458 57.0779 32.4458C57.2808 32.4458 57.5006 32.4458 57.7373 32.4458C57.9656 32.4458 58.2023 32.4458 58.4222 32.4458L58.3799 32.4712Z" fill="white"/>
<path d="M33.1415 59.686L33.1331 62.2308H29.7596L29.7173 74.7518H26.8342L26.8764 62.2308H23.5029L23.5114 59.686H33.1415Z" fill="#3E3935"/>
<path d="M46.0608 68.0221L48.8932 74.7518H45.7903L43.2876 68.6139H41.9095L41.8926 74.7518H39.001L39.0433 59.686H43.2284C44.0993 59.686 44.8518 59.7875 45.4943 59.9904C46.1369 60.1933 46.6696 60.4892 47.0923 60.8697C47.5151 61.2586 47.8279 61.732 48.0393 62.2815C48.2506 62.8395 48.3521 63.4736 48.3521 64.1838C48.3521 64.6488 48.3098 65.0884 48.2168 65.4858C48.1238 65.8831 47.9885 66.2551 47.811 66.5764C47.625 66.8977 47.3882 67.1851 47.1008 67.4303C46.8133 67.6755 46.4667 67.8699 46.0693 68.0221H46.0608ZM43.3975 66.2382C43.7188 66.2382 44.0063 66.1959 44.2599 66.1199C44.5136 66.0353 44.7334 65.9169 44.911 65.7479C45.0885 65.5788 45.2238 65.359 45.3168 65.0969C45.4098 64.8348 45.4605 64.522 45.4605 64.15C45.4605 63.7864 45.4098 63.4736 45.3252 63.2115C45.2322 62.9494 45.097 62.7381 44.9194 62.5605C44.7419 62.3915 44.5305 62.2646 44.2768 62.1885C44.0232 62.104 43.7357 62.0702 43.4144 62.0702H41.9264V66.2467H43.406" fill="#3E3935"/>
<path d="M64.8903 59.686V70.2372C64.8903 71.0657 64.7635 71.7759 64.5352 72.3677C64.2985 72.9679 63.9603 73.4499 63.5291 73.8303C63.0979 74.2107 62.5737 74.4897 61.9649 74.6757C61.3646 74.8533 60.6798 74.9463 59.9357 74.9463C59.1917 74.9463 58.5153 74.8617 57.9066 74.6757C57.3063 74.4897 56.7821 74.2107 56.3593 73.8303C55.9281 73.4499 55.5899 72.9595 55.3701 72.3677C55.1418 71.7674 55.0234 71.0572 55.0234 70.2372V59.686H57.9235V70.2203C57.915 70.5838 57.9573 70.8966 58.0334 71.1672C58.1179 71.4377 58.2363 71.666 58.4054 71.852C58.5745 72.038 58.7859 72.1732 59.0395 72.2662C59.2932 72.3592 59.5975 72.4015 59.9526 72.4015C60.3078 72.4015 60.6037 72.3508 60.8658 72.2662C61.1279 72.1732 61.3392 72.0295 61.5083 71.852C61.6774 71.666 61.8043 71.4377 61.8888 71.1672C61.9734 70.8966 62.0072 70.5753 62.0072 70.2203V59.686H64.8988H64.8903Z" fill="#3E3935"/>
<path d="M107.815 59.4831C108.458 59.4831 109.041 59.5761 109.557 59.7536C110.073 59.9312 110.529 60.1848 110.918 60.5061C111.307 60.8273 111.637 61.2162 111.891 61.6643C112.153 62.1039 112.347 62.5943 112.474 63.1269L109.878 63.8794C109.76 63.5243 109.625 63.2199 109.481 62.9663C109.337 62.7127 109.185 62.5013 109.007 62.3407C108.838 62.18 108.644 62.0532 108.441 61.9771C108.23 61.901 108.001 61.8588 107.756 61.8588C107.511 61.8588 107.274 61.901 107.08 61.9687C106.885 62.0448 106.716 62.1547 106.581 62.2984C106.446 62.4421 106.344 62.6112 106.276 62.8141C106.209 63.017 106.175 63.2453 106.175 63.4989C106.175 64.0654 106.581 64.505 107.19 64.9108C107.798 65.3166 108.602 65.7055 109.413 66.1536C110.216 66.6101 111.028 67.1428 111.637 67.8614C112.246 68.58 112.651 69.4677 112.651 70.6514C112.651 71.3024 112.542 71.8942 112.33 72.4183C112.119 72.9425 111.806 73.3991 111.392 73.7795C110.977 74.1515 110.47 74.4474 109.878 74.6503C109.286 74.8532 108.602 74.9547 107.849 74.9547C107.266 74.9547 106.708 74.8786 106.2 74.7095C105.685 74.5404 105.211 74.2952 104.788 73.9486C104.366 73.602 103.985 73.1708 103.672 72.6297C103.351 72.0971 103.089 71.4545 102.895 70.719L105.744 70.1187C105.828 70.5753 105.955 70.9557 106.116 71.2685C106.276 71.5814 106.462 71.835 106.674 72.0294C106.877 72.2239 107.105 72.3592 107.325 72.4522C107.553 72.5367 107.773 72.579 107.993 72.579C108.246 72.579 108.483 72.5367 108.695 72.4606C108.906 72.3845 109.1 72.2662 109.261 72.1055C109.422 71.9533 109.549 71.7589 109.633 71.5391C109.726 71.3193 109.768 71.0656 109.768 70.7782C109.768 70.068 109.363 69.5354 108.754 69.0704C108.145 68.6054 107.342 68.1996 106.53 67.7515C105.727 67.3034 104.915 66.8215 104.306 66.179C103.698 65.5364 103.292 64.7502 103.292 63.6934C103.292 63.0508 103.385 62.459 103.579 61.9433C103.765 61.4276 104.053 60.9795 104.433 60.616C104.814 60.2524 105.287 59.965 105.854 59.7705C106.42 59.5761 107.08 59.4746 107.832 59.4746L107.815 59.4831Z" fill="#3E3935"/>
<path d="M97.4922 59.686L93.6199 65.7563L97.9742 74.7518H94.7275L91.6922 68.4279L90.5677 70.1357L90.5761 74.7518H87.6845L87.6592 59.686H90.5423L90.5592 65.9H90.6015L94.3301 59.686H97.4922Z" fill="#3E3935"/>
<path d="M76.3545 59.4829C77.0562 59.4829 77.7073 59.5675 78.2822 59.745C78.8656 59.931 79.3729 60.21 79.7956 60.6074C80.2184 61.0047 80.5481 61.5204 80.7764 62.163C81.0047 62.814 81.1315 63.5918 81.1315 64.5217V64.564H78.2399V64.1498C78.2399 63.7355 78.1976 63.3889 78.1046 63.1183C78.0201 62.8393 77.8933 62.628 77.7242 62.4673C77.5635 62.3067 77.3606 62.1968 77.1323 62.1291C76.904 62.0615 76.6419 62.0277 76.346 62.0277C76.0501 62.0277 75.7965 62.0531 75.5682 62.1291C75.3399 62.1968 75.137 62.3067 74.9763 62.4673C74.8157 62.628 74.6889 62.8393 74.5959 63.1183C74.5113 63.3973 74.4606 63.7355 74.4606 64.1498V70.2877C74.4606 70.7019 74.5113 71.0486 74.5959 71.3276C74.6804 71.6066 74.8072 71.8179 74.9763 71.9786C75.137 72.1392 75.3399 72.2491 75.5682 72.3167C75.7965 72.3844 76.0586 72.4182 76.346 72.4182C76.6335 72.4182 76.8956 72.3928 77.1239 72.3167C77.3522 72.2491 77.5551 72.1392 77.7157 71.9786C77.8764 71.8179 78.0032 71.6066 78.0962 71.3276C78.1807 71.0486 78.2315 70.7104 78.2315 70.2877V69.2816H81.123V69.9072C81.123 70.8372 81.0047 71.615 80.7764 72.266C80.5481 72.917 80.2184 73.4327 79.7956 73.8301C79.3729 74.2274 78.8656 74.5149 78.2822 74.6924C77.6988 74.8784 77.0478 74.963 76.346 74.963C75.6443 74.963 74.9932 74.8784 74.4183 74.6924C73.8434 74.5064 73.3276 74.2274 72.9049 73.8301C72.4821 73.4327 72.1524 72.917 71.9157 72.266C71.6874 71.615 71.5605 70.8372 71.5605 69.9072V64.5302C71.5605 63.6002 71.6789 62.8224 71.9072 62.1714C72.1355 61.5204 72.4652 61.0132 72.888 60.6158C73.3107 60.2184 73.818 59.931 74.3929 59.7535C74.9763 59.5675 75.6189 59.4914 76.3207 59.4914L76.3545 59.4829Z" fill="#3E3935"/>
<path d="M106.26 26.8827C104.628 26.7643 104.518 27.7704 105.482 28.0071C105.795 28.0832 110.631 29.4697 112.178 32.0991C112.533 32.7078 112.643 33.1728 112.601 33.5279C112.508 34.331 111.612 34.5931 110.944 34.6777C110.056 34.796 105.744 34.9059 103.427 34.9059C101.111 34.9059 96.7986 34.796 95.9109 34.6777C94.947 34.5509 93.5097 34.0774 94.6765 32.0991C96.2237 29.4697 101.06 28.0832 101.373 28.0071C102.328 27.7704 102.227 26.7643 100.595 26.8827C94.1861 27.3392 88.9609 31.8116 88.9609 36.1826C88.9609 40.5535 94.1776 45.0259 100.595 45.4824C102.227 45.6008 102.328 44.5947 101.373 44.358C101.06 44.2819 96.2237 42.8954 94.6765 40.2661C93.5181 38.2877 94.947 37.8143 95.9109 37.6874C96.7986 37.5775 101.111 37.4676 103.427 37.4676C105.744 37.4676 110.056 37.5775 110.944 37.6874C111.908 37.8143 113.345 38.2877 112.178 40.2661C110.631 42.8954 105.795 44.2819 105.482 44.358C104.526 44.5947 104.628 45.6008 106.26 45.4824C112.668 45.0259 117.885 40.5535 117.885 36.1826C117.885 31.8116 112.668 27.3392 106.26 26.8827Z" fill="white"/>
<path d="M19.1997 84.5337H20.3496L22.7339 90.7308H21.5755L20.9922 89.0906H18.5149L17.9315 90.7308H16.8154L19.1913 84.5337H19.1997ZM18.8192 88.2621H20.7131L19.7831 85.599H19.7577L18.8192 88.2621Z" fill="#3E3935"/>
<path d="M25.1523 84.5337H30.1661V85.4721H28.1961V90.7308H27.1139V85.4721H25.1523V84.5337Z" fill="#BB2126"/>
<path d="M29.582 88.4818C29.582 87.1122 30.4022 86.123 31.8479 86.123C33.2937 86.123 34.1139 87.1122 34.1139 88.4818C34.1139 89.8514 33.2937 90.8491 31.8479 90.8491C30.4022 90.8491 29.582 89.8599 29.582 88.4818ZM33.1162 88.4818C33.1162 87.7125 32.7273 86.9009 31.8395 86.9009C30.9517 86.9009 30.5628 87.704 30.5628 88.4818C30.5628 89.2596 30.9517 90.0713 31.8395 90.0713C32.7273 90.0713 33.1162 89.2681 33.1162 88.4818Z" fill="#BB2126"/>
<path d="M34.4355 86.2412H35.5178L36.693 89.5892H36.7099L37.8513 86.2412H38.8828L37.1411 90.9672C36.8198 91.7704 36.5831 92.5059 35.5516 92.5059C35.3149 92.5059 35.095 92.489 34.8667 92.4552V91.6182C35.0189 91.6436 35.1796 91.6774 35.3318 91.6774C35.7883 91.6774 35.9067 91.4322 36.0251 91.0518L36.135 90.7052L34.4355 86.2412Z" fill="#BB2126"/>
<path d="M39.2295 88.4818C39.2295 87.1122 40.0496 86.123 41.4954 86.123C42.9412 86.123 43.7613 87.1122 43.7613 88.4818C43.7613 89.8514 42.9412 90.8491 41.4954 90.8491C40.0496 90.8491 39.2295 89.8599 39.2295 88.4818ZM42.7636 88.4818C42.7636 87.7125 42.3747 86.9009 41.487 86.9009C40.5992 86.9009 40.2103 87.704 40.2103 88.4818C40.2103 89.2596 40.5992 90.0713 41.487 90.0713C42.3747 90.0713 42.7636 89.2681 42.7636 88.4818Z" fill="#BB2126"/>
<path d="M44.1247 86.2412H44.8687V84.897H45.8579V86.2412H46.7541V86.9768H45.8579V89.3694C45.8579 89.7752 45.8917 89.9865 46.3314 89.9865C46.4667 89.9865 46.6104 89.9865 46.7457 89.9527V90.7136C46.5259 90.7305 46.3229 90.7644 46.1031 90.7644C45.0716 90.7644 44.8772 90.367 44.8602 89.623V86.9768H44.1162V86.2412H44.1247Z" fill="#BB2126"/>
<path d="M51.6583 89.7332C51.6583 89.9784 51.7091 90.0714 51.8951 90.0714C51.9543 90.0714 52.0304 90.0714 52.1403 90.0545V90.7393C51.9965 90.79 51.6837 90.8492 51.5146 90.8492C51.1172 90.8492 50.8298 90.7055 50.7537 90.2997C50.3647 90.6801 49.7306 90.8492 49.198 90.8492C48.3948 90.8492 47.6592 90.418 47.6592 89.5388C47.6592 88.4228 48.5554 88.2368 49.384 88.1438C50.0942 88.0085 50.7283 88.0931 50.7283 87.5097C50.7283 87.0025 50.1956 86.901 49.7983 86.901C49.2402 86.901 48.8513 87.1293 48.809 87.6112H47.8198C47.8875 86.4614 48.8682 86.1147 49.8575 86.1147C50.7368 86.1147 51.6499 86.4698 51.6499 87.4167V89.7248L51.6583 89.7332ZM50.6691 88.482C50.3647 88.6849 49.8913 88.6764 49.4516 88.7525C49.0289 88.8202 48.6484 88.9808 48.6484 89.4965C48.6484 89.9362 49.2149 90.0714 49.5615 90.0714C49.9927 90.0714 50.6691 89.8432 50.6691 89.226V88.4904V88.482Z" fill="#BB2126"/>
<path d="M60.6794 90.7305H59.9861L59.8255 90.0034C59.2421 90.6628 58.7179 90.8826 57.9569 90.8826C56.0969 90.8826 54.9893 89.4116 54.9893 87.6361C54.9893 85.8607 56.0969 84.3896 57.9569 84.3896C59.3097 84.3896 60.4427 85.1083 60.6118 86.5033H59.5549C59.4534 85.6916 58.7432 85.2689 57.9569 85.2689C56.6295 85.2689 56.0715 86.4356 56.0715 87.6277C56.0715 88.8198 56.6295 89.9865 57.9569 89.9865C59.0645 90.0034 59.6733 89.3355 59.6902 88.2871H58.0415V87.4671H60.6794V90.7305Z" fill="#3E3935"/>
<path d="M61.7197 86.2414H62.6498V87.1122H62.6667C62.7766 86.6388 63.3684 86.123 63.9772 86.123C64.2055 86.123 64.2647 86.14 64.3492 86.1484V87.1038C64.2055 87.0868 64.0617 87.0615 63.9265 87.0615C63.2501 87.0615 62.7089 87.611 62.7089 88.5917V90.7307H61.7197V86.2499V86.2414Z" fill="#3E3935"/>
<path d="M64.4082 88.4818C64.4082 87.1122 65.2283 86.123 66.6741 86.123C68.1199 86.123 68.94 87.1122 68.94 88.4818C68.94 89.8514 68.1199 90.8491 66.6741 90.8491C65.2283 90.8491 64.4082 89.8599 64.4082 88.4818ZM67.9508 88.4818C67.9508 87.7125 67.5619 86.9009 66.6741 86.9009C65.7864 86.9009 65.3974 87.704 65.3974 88.4818C65.3974 89.2596 65.7864 90.0713 66.6741 90.0713C67.5619 90.0713 67.9508 89.2681 67.9508 88.4818Z" fill="#3E3935"/>
<path d="M73.6997 90.7305H72.7274V90.1049H72.7105C72.4653 90.553 71.9327 90.8489 71.4338 90.8489C70.2586 90.8489 69.7598 90.2571 69.7598 89.0904V86.2497H70.749V88.9974C70.749 89.7836 71.0703 90.0711 71.6114 90.0711C72.4315 90.0711 72.7105 89.5384 72.7105 88.8452V86.2412H73.6997V90.7221V90.7305Z" fill="#3E3935"/>
<path d="M74.7656 86.2414H75.7041V86.8501H75.721C76 86.3344 76.5327 86.123 77.1076 86.123C78.5196 86.123 79.2045 87.1968 79.2045 88.5072C79.2045 89.7162 78.5957 90.8491 77.2683 90.8491C76.6933 90.8491 76.0761 90.6377 75.7718 90.1474H75.7548V92.3878H74.7656V86.2499V86.2414ZM76.9808 86.9009C76.1438 86.9009 75.721 87.5349 75.721 88.4903C75.721 89.3949 76.1776 90.0713 76.9808 90.0713C77.8855 90.0713 78.2237 89.2765 78.2237 88.4903C78.2237 87.704 77.8009 86.9009 76.9808 86.9009Z" fill="#3E3935"/>
<path d="M86.7796 86.5034C86.5936 85.7932 86.137 85.2691 85.2323 85.2691C83.9049 85.2691 83.3469 86.4358 83.3469 87.6278C83.3469 88.8199 83.9049 89.9866 85.2323 89.9866C86.1962 89.9866 86.7204 89.268 86.8134 88.3634H87.8702C87.7857 89.8429 86.7373 90.8743 85.2323 90.8743C83.3722 90.8743 82.2646 89.4033 82.2646 87.6278C82.2646 85.8524 83.3722 84.3813 85.2323 84.3813C86.6274 84.3898 87.7265 85.1676 87.8618 86.495H86.7796V86.5034Z" fill="#3E3935"/>
<path d="M88.5127 88.4818C88.5127 87.1122 89.3328 86.123 90.7786 86.123C92.2244 86.123 93.0445 87.1122 93.0445 88.4818C93.0445 89.8514 92.2244 90.8491 90.7786 90.8491C89.3328 90.8491 88.5127 89.8599 88.5127 88.4818ZM92.0468 88.4818C92.0468 87.7125 91.6579 86.9009 90.7701 86.9009C89.8824 86.9009 89.4935 87.704 89.4935 88.4818C89.4935 89.2596 89.8824 90.0713 90.7701 90.0713C91.6579 90.0713 92.0468 89.2681 92.0468 88.4818Z" fill="#3E3935"/>
<path d="M93.8652 86.2414H94.8037V86.867H94.8291C95.125 86.4274 95.497 86.123 96.2072 86.123C96.7568 86.123 97.2641 86.3598 97.467 86.867C97.7968 86.4105 98.2195 86.123 98.8705 86.123C99.8175 86.123 100.376 86.5373 100.376 87.6364V90.7307H99.3863V88.1098C99.3863 87.3997 99.344 86.9009 98.5662 86.9009C97.8982 86.9009 97.6108 87.3405 97.6108 88.1014V90.7307H96.6215V87.8477C96.6215 87.2306 96.4271 86.9009 95.8352 86.9009C95.3279 86.9009 94.8545 87.3151 94.8545 88.0591V90.7222H93.8652V86.2414Z" fill="#3E3935"/>
<path d="M101.432 86.2414H102.37V86.8501H102.387C102.666 86.3344 103.207 86.123 103.774 86.123C105.186 86.123 105.87 87.1968 105.87 88.5072C105.87 89.7162 105.262 90.8491 103.934 90.8491C103.359 90.8491 102.751 90.6377 102.438 90.1474H102.421V92.3878H101.432V86.2499V86.2414ZM103.647 86.9009C102.818 86.9009 102.387 87.5349 102.387 88.4903C102.387 89.3949 102.844 90.0713 103.647 90.0713C104.552 90.0713 104.89 89.2765 104.89 88.4903C104.89 87.704 104.467 86.9009 103.647 86.9009Z" fill="#3E3935"/>
<path d="M110.47 89.7332C110.47 89.9784 110.521 90.0714 110.707 90.0714C110.766 90.0714 110.85 90.0714 110.952 90.0545V90.7393C110.8 90.79 110.495 90.8492 110.326 90.8492C109.929 90.8492 109.641 90.7055 109.565 90.2997C109.176 90.6801 108.542 90.8492 108.009 90.8492C107.206 90.8492 106.471 90.418 106.471 89.5388C106.471 88.4228 107.367 88.2368 108.196 88.1438C108.906 88.0085 109.54 88.0931 109.54 87.5097C109.54 87.0025 109.007 86.901 108.61 86.901C108.052 86.901 107.663 87.1293 107.621 87.6112H106.631C106.699 86.4614 107.68 86.1147 108.669 86.1147C109.548 86.1147 110.461 86.4698 110.461 87.4167V89.7248L110.47 89.7332ZM109.481 88.482C109.176 88.6849 108.703 88.6764 108.263 88.7525C107.84 88.8202 107.46 88.9808 107.46 89.4965C107.46 89.9362 108.026 90.0714 108.373 90.0714C108.804 90.0714 109.481 89.8432 109.481 89.226V88.4904V88.482Z" fill="#3E3935"/>
<path d="M111.535 86.2414H112.474V86.9009L112.491 86.9178C112.786 86.4189 113.294 86.123 113.886 86.123C114.858 86.123 115.475 86.6472 115.475 87.6533V90.7307H114.486V87.9154C114.469 87.2137 114.19 86.9093 113.607 86.9093C112.947 86.9093 112.524 87.4335 112.524 88.0845V90.7307H111.535V86.2499V86.2414Z" fill="#3E3935"/>
<path d="M116.016 86.2412H117.098L118.274 89.5892H118.291L119.424 86.2412H120.455L118.713 90.9672C118.392 91.7704 118.155 92.5059 117.124 92.5059C116.887 92.5059 116.667 92.489 116.439 92.4552V91.6182C116.591 91.6436 116.752 91.6774 116.904 91.6774C117.361 91.6774 117.479 91.4322 117.597 91.0518L117.707 90.7052L116.008 86.2412H116.016Z" fill="#3E3935"/>
</g>
<defs>
<clipPath id="clip0_5328_8604">
<rect width="130.95" height="105.883" fill="white" transform="translate(3.02539 2.59326)"/>
</clipPath>
</defs>
</svg>
