<?xml version="1.0" encoding="UTF-8"?>
<svg id="Ebene_1" xmlns="http://www.w3.org/2000/svg" version="1.1" viewBox="0 0 294 69">
  <!-- Generator: Adobe Illustrator 29.6.1, SVG Export Plug-In . SVG Version: 2.1.1 Build 9)  -->
  <defs>
    <style>
      .st0 {
        fill: #fff;
      }
    </style>
  </defs>
  <path class="st0" d="M63.9,17.1c-3-5.2-7.3-9.5-12.5-12.5C46.2,1.6,40.3,0,34.3,0s-11.9,1.6-17.1,4.6c-5.2,3-9.5,7.3-12.5,12.5C1.6,22.3,0,28.2,0,34.2s1.6,11.9,4.6,17.1c3,5.2,7.3,9.5,12.5,12.5,5.2,3,11.1,4.6,17.1,4.6s11.9-1.6,17.1-4.6c5.2-3,9.5-7.3,12.5-12.5s4.6-11.1,4.6-17.1-1.6-11.9-4.6-17.1c0,0,0,0,0,0ZM3.4,34.2c0-5.4,1.4-10.7,4.1-15.4,2.7-4.7,6.6-8.6,11.3-11.3,4.4-2.5,9.4-4,14.4-4.1l-3.9,28L7.1,48.8c-2.4-4.5-3.7-9.5-3.7-14.6ZM49.7,60.9c-4.7,2.7-10,4.1-15.4,4.1s-10.7-1.4-15.4-4.1c-4.4-2.5-8.1-6.1-10.8-10.4l26.2-10.6,26.2,10.6c-2.7,4.3-6.4,7.9-10.8,10.4ZM61.4,48.8l-22.3-17.4-3.9-28c5.1.2,10,1.6,14.4,4.1,4.7,2.7,8.6,6.6,11.3,11.3,2.7,4.7,4.1,10,4.1,15.4s-1.3,10.1-3.7,14.6c0,0,0,0,.1,0Z"/>
  <path class="st0" d="M293.4,33.4c0-.4-.3-.9-.9-.9h-16.5c-.4,0-.9.3-.9.9v1.3c0,.6.4,1,.9,1h10.3c.6,0,.6.3.6,1s0,1-.6,1h-21c-.4,0-.9-.3-.9-.9v-6.1c0-.4.3-.9.9-.9h27c.4,0,.9-.3.9-.9v-2.4c0-.4-.3-.9-.9-.9h-33.5c-.4,0-.9.3-.9.9v15c0,.4.3.9.9.9h33.5c.4,0,.9-.3.9-.9v-8.5M239.9,37.5c-.4.3-.9.6-1.3.6h-4.3c-.6,0-1-.3-1.3-.6l-8.1-5.4c-.4-.3-.9-.1-.9.4v8.9c0,.4-.3.9-.9.9h-4.3c-.6,0-1-.4-1-.9v-15c0-.6.4-.9,1-.9h4.6c.4,0,1,.1,1.3.4l11,7.3c.4.3,1,.3,1.3,0l11-7.3c.4-.3.9-.4,1.3-.4h4.6c.4,0,.9.3.9.9v15c0,.4-.3.9-.9.9h-4.3c-.6,0-1-.4-1-.9v-8.9c0-.6-.3-.7-.9-.4l-7.8,5.4h-.1,0ZM192,30c-.3,0-.4,0-.7.4l-2.6,3.4c-.1.3,0,.4.1.4h18.8c.6,0,.6-.3.6-.7v-2.4c0-.7,0-1-.6-1h-15.7.1,0ZM181,42.6h-5.6c-.3,0-.6-.3-.6-.4v-.3l11.8-15.5c.3-.3.6-.6,1-.6h25.4c.6,0,1,.6,1,1.2v14.7c0,.4-.3.9-.9.9h-4.3c-.4,0-.9-.3-.9-.9v-2.2c0-.6,0-.7-.6-.7h-22.3c-.4,0-.7.3-.9.6l-1.6,2.4c-.4.4-1,.9-1.6.9h.1ZM169.7,42.6c.6,0,1.2-.4,1.5-.9l11.5-15c.4-.6.1-1-.3-1h-2.4c-.4,0-.9.3-1,.6l-11.8,15.5c0,.3,0,.6.1.7h2.4ZM161.7,42.6c.6,0,1.2-.4,1.5-.9l11.5-15c.4-.6.1-1-.3-1h-3.2c-.4,0-.9.3-1,.6l-11.8,15.5c0,.3,0,.6.1.7h3.2ZM148.6,42.6c-.3,0-.6-.3-.6-.4v-.3l11.8-15.5c.3-.3.6-.6,1-.6h4.7c.6,0,.7.4.3,1l-11.5,15c-.3.6-.9.9-1.5.9h-4.4.2ZM137.8,42.6c-.3,0-.6-.3-.6-.4v-.3l11.8-15.5c.3-.3.6-.6,1-.6h6.3c.6,0,.7.4.3,1l-11.5,15c-.3.6-.9.9-1.5.9h-6,.2ZM120,42.6c-.3,0-.6-.3-.6-.4v-.3l11.8-15.5c.3-.3.6-.6,1-.6h14c.6,0,.7.4.3,1l-11.5,15c-.3.6-.9.9-1.5.9h-13.7.2Z"/>
</svg>